<?xml version="1.0" encoding="utf-8"?>
<!-- Generator: Adobe Illustrator 18.0.0, SVG Export Plug-In . SVG Version: 6.00 Build 0)  -->
<!DOCTYPE svg PUBLIC "-//W3C//DTD SVG 1.1//EN" "http://www.w3.org/Graphics/SVG/1.1/DTD/svg11.dtd">
<svg version="1.1" id="Warstwa_1" xmlns="http://www.w3.org/2000/svg" xmlns:xlink="http://www.w3.org/1999/xlink" x="0px" y="0px"
	 viewBox="0 0 85 85" enable-background="new 0 0 85 85" xml:space="preserve">
<g>
	<path fill="#BFB6A4" d="M44.2,75.4c-8.9,0-17.8-2.8-23-8.3c-0.6-0.9-2.4-1.6-4.7-1.6c-1.1,0-2.2,0.2-3.4,0.5c0.3-1.3-0.3-2.3,1.5-3
		C14.3,63,14,63,13.6,63c-2.6,0-4.8,1.2-5.3,1.7c0,0,0.1-1.7,1.1-3.1c-1.5,0.2-3,0.6-4.3,1.1c1.1-0.8,2.7-1.3,4.6-1.5
		c0.4-0.4,0.9-0.7,1.6-0.9c-0.7-0.3-1.4-0.5-2.1-0.5c-1.5,0-2.9,0.7-3.8,1.3c0.6-3.4,3.2-5.5,4.7-6c0.2-0.4,0.4-0.8,0.5-1.3
		c-1.3-0.2-2.6-0.3-3.9-0.3c-1,0-2.1,0.1-3,0.2c1-0.4,2.2-0.6,3.6-0.6c1.1,0,2.3,0.1,3.5,0.3c0.6-1.9,1-4,1.4-6.3
		C11,47,9.8,46.9,8.7,46.9c-0.1,0-0.3,0-0.4,0c0.6-0.2,1.3-0.2,2-0.2c0.6,0,1.3,0.1,2,0.2c0.5-3.8,0.9-8,2-12.1
		c-5.1-8.5-3.7-23.1-3.7-23.1s11.8,0.1,18.8,5.8c0.4-0.2,0.8-0.3,1.2-0.5c4.8-1.8,9.3-2.6,13.7-2.6c4.4,0,8.9,0.9,13.7,2.6
		c0.4,0.2,0.8,0.3,1.2,0.5c7.1-5.7,18.8-5.8,18.8-5.8s1.4,14.6-3.7,23.1c1,4.1,1.4,8.3,2,12.1c0.7-0.1,1.4-0.2,2-0.2
		c0.7,0,1.4,0.1,2,0.2c-0.2,0-0.3,0-0.5,0c-1.1,0-2.3,0.1-3.5,0.3c0.3,2.3,0.7,4.4,1.4,6.3c1.2-0.2,2.4-0.3,3.5-0.3
		c1.4,0,2.6,0.2,3.6,0.6c-1-0.2-2-0.2-3-0.2c-1.3,0-2.6,0.1-3.9,0.3c0.2,0.4,0.3,0.9,0.5,1.3c1.4,0.6,4.1,2.6,4.7,6
		c-0.9-0.7-2.3-1.3-3.8-1.3c-0.7,0-1.4,0.1-2.1,0.5c0.6,0.2,1.2,0.5,1.6,0.9c1.9,0.2,3.5,0.7,4.6,1.5c-1.3-0.5-2.7-0.9-4.2-1.1
		c1,1.3,1.1,3.1,1.1,3.1c-0.5-0.5-2.7-1.7-5.3-1.7c-0.3,0-0.6,0-1,0.1c1.7,0.7,1.2,1.7,1.5,3c-1.2-0.3-2.3-0.5-3.4-0.5
		c-2.3,0-4.1,0.7-4.7,1.6C62.1,72.6,53.1,75.4,44.2,75.4L44.2,75.4z"/>
	<path fill-rule="evenodd" clip-rule="evenodd" fill="#7D7E80" d="M29,18.7C23.1,9.7,7,9.6,7,9.6s-2,20.2,7,26.9L29,18.7z"/>
	<path fill-rule="evenodd" clip-rule="evenodd" fill="#7D7E80" d="M52.6,18.7c5.9-9,21.9-9.1,21.9-9.1s2,20.2-7,26.9L52.6,18.7z"/>
	<path fill-rule="evenodd" clip-rule="evenodd" fill="#DD5C71" d="M11.6,14.6c0,0,7.7-0.1,12.9,5.4c5.2,5.6-9.3,11.5-9.3,11.5
		S9.2,22.7,11.6,14.6L11.6,14.6z"/>
	<path fill-rule="evenodd" clip-rule="evenodd" fill="#DD5C71" d="M70,14.6c0,0-7.7-0.1-12.9,5.4c-5.2,5.6,9.3,11.5,9.3,11.5
		S72.4,22.7,70,14.6L70,14.6z"/>
	<path fill-rule="evenodd" clip-rule="evenodd" fill="#939292" d="M27.1,14.9C5.7,22.7,11.5,42.4,6.7,53.1c-1.4,0.6-4.1,2.6-4.7,6
		c1.3-1,3.6-1.9,5.9-0.9c-2.9,0.9-3.1,4.4-3.1,4.4c0.5-0.5,3.3-2,6.3-1.6c-1.7,0.7-1.2,1.7-1.5,3c3.6-1.1,7.2-0.2,8.1,1.1l0.4-0.5
		l0.1,0c5,4.6,13.2,7,22.6,7l0,0c9.4,0,17.7-2.4,22.6-7l0.1,0l0.4,0.5c0.9-1.3,4.5-2.1,8-1.1c-0.3-1.3,0.3-2.3-1.5-3
		c3-0.4,5.8,1.1,6.3,1.6c0,0-0.2-3.5-3-4.4c2.4-1,4.6-0.1,5.9,0.9c-0.6-3.4-3.2-5.5-4.7-6c-4.8-10.7,1-30.4-20.4-38.2
		C44.8,11.4,36.8,11.4,27.1,14.9L27.1,14.9z"/>
	<path fill-rule="evenodd" clip-rule="evenodd" fill="#FFFFFF" d="M17.8,65.1c10.5,11.1,35.6,11,46.1,0
		C60.4,43.6,21.5,43.7,17.8,65.1L17.8,65.1z"/>
	<path fill-rule="evenodd" clip-rule="evenodd" fill="#0D0D0D" d="M41.4,54.4c-0.2,0-0.4,0-0.6,0v8.7c-1.2,2-2.6,3.1-4.3,3.3
		c-3.7,0.5-8.7-3.8-8.9-3.6c3.9,4.2,10,6.9,13.7,1.5c3.7,5.4,9.8,2.8,13.7-1.5c-0.2-0.2-5.2,4-8.9,3.6c-1.7-0.2-3.2-1.4-4.3-3.3
		v-8.7C41.8,54.4,41.6,54.4,41.4,54.4L41.4,54.4z"/>
	<path fill-rule="evenodd" clip-rule="evenodd" fill="#DD5C71" d="M41.4,46c-9.3-0.1-9.2,3.2-4.4,6.6c1.8,1.2,3.3,2,4.4,2.5
		c1.1-0.5,2.6-1.3,4.3-2.5C50.6,49.2,50.7,45.9,41.4,46L41.4,46z"/>
	<path fill-rule="evenodd" clip-rule="evenodd" fill="#7F7A7A" d="M25.3,57.6c0.1-0.2,0-0.4-0.2-0.5C24.3,56.7,6.8,49,0.3,51.8
		C8.4,50.5,19.2,55,25.3,57.6L25.3,57.6z"/>
	<path fill-rule="evenodd" clip-rule="evenodd" fill="#7F7A7A" d="M56.3,57.6c-0.1-0.2,0-0.4,0.2-0.5c0.7-0.3,18.2-8.1,24.8-5.3
		C73.1,50.5,62.4,55,56.3,57.6L56.3,57.6z"/>
	<path fill-rule="evenodd" clip-rule="evenodd" fill="#7F7A7A" d="M28.8,53.9c0.1-0.2,0.1-0.4-0.1-0.6C28,52.9,11.6,43,4.8,44.9
		C13.1,44.6,23.1,50.6,28.8,53.9L28.8,53.9z"/>
	<path fill-rule="evenodd" clip-rule="evenodd" fill="#7F7A7A" d="M52.8,53.9c-0.1-0.2-0.1-0.4,0.1-0.6c0.7-0.4,17-10.4,23.9-8.5
		C68.5,44.6,58.4,50.6,52.8,53.9L52.8,53.9z"/>
	<path fill-rule="evenodd" clip-rule="evenodd" fill="#7F7A7A" d="M24.8,60.8c0.1-0.2-0.1-0.4-0.3-0.4C23.8,60.3,6.9,57,1.8,60.7
		C8.7,57.9,19,59.8,24.8,60.8L24.8,60.8z"/>
	<path fill-rule="evenodd" clip-rule="evenodd" fill="#7F7A7A" d="M56.7,60.8c0-0.2,0.1-0.4,0.3-0.4c0.7-0.1,17.6-3.4,22.8,0.3
		C72.9,57.9,62.6,59.8,56.7,60.8L56.7,60.8z"/>
	<path fill="#FFFFFF" d="M24.5,37.4c0.3-1.3,1.6-2.2,3-1.9c1.4,0.3,2.3,1.6,2,2.9c0,0.2-0.1,0.3-0.1,0.5c-0.3-0.4-0.8-0.7-1.5-0.9
		c-1.3-0.2-2.4,0.3-3,1.1C24.5,38.6,24.4,38.1,24.5,37.4L24.5,37.4z M26.3,41.8c2.2,0.4,4.3-1,4.7-3.1c0.4-2.1-1-4.2-3.1-4.6
		c-2.2-0.4-4.3,1-4.7,3.1C22.7,39.3,24.1,41.3,26.3,41.8L26.3,41.8z"/>
	<path fill="#0D0D0D" d="M27.8,38c0.7,0.2,1.2,0.5,1.5,0.9c0.1-0.2,0.1-0.3,0.1-0.5c0.3-1.3-0.6-2.6-2-2.9c-1.4-0.3-2.7,0.6-3,1.9
		c-0.1,0.6,0,1.2,0.3,1.7C25.5,38.3,26.5,37.8,27.8,38L27.8,38z"/>
	<path fill="#FFFFFF" d="M56.2,39.1c-0.7-0.8-1.7-1.4-3-1.1c-0.7,0.2-1.2,0.5-1.5,0.9c-0.1-0.2-0.1-0.3-0.2-0.5
		c-0.3-1.3,0.6-2.6,2-2.9c1.4-0.3,2.7,0.6,3,1.9C56.6,38.1,56.5,38.6,56.2,39.1L56.2,39.1z M57.9,37.2c-0.4-2.1-2.5-3.5-4.7-3.1
		c-2.2,0.4-3.6,2.5-3.2,4.6c0.4,2.1,2.5,3.5,4.7,3.1C56.9,41.3,58.3,39.3,57.9,37.2L57.9,37.2z"/>
	<path fill="#0D0D0D" d="M53.2,38c-0.7,0.2-1.2,0.5-1.5,0.9c-0.1-0.2-0.1-0.3-0.2-0.5c-0.3-1.3,0.6-2.6,2-2.9c1.4-0.3,2.7,0.6,3,1.9
		c0.1,0.6,0,1.2-0.3,1.7C55.5,38.3,54.5,37.8,53.2,38L53.2,38z"/>
</g>
</svg>
