<?xml version="1.0" encoding="utf-8"?>
<!-- Generator: Adobe Illustrator 18.0.0, SVG Export Plug-In . SVG Version: 6.00 Build 0)  -->
<!DOCTYPE svg PUBLIC "-//W3C//DTD SVG 1.1//EN" "http://www.w3.org/Graphics/SVG/1.1/DTD/svg11.dtd">
<svg version="1.1" id="Warstwa_1" xmlns="http://www.w3.org/2000/svg" xmlns:xlink="http://www.w3.org/1999/xlink" x="0px" y="0px"
	 viewBox="0 0 85 85" enable-background="new 0 0 85 85" xml:space="preserve">
<g>
	<path fill="#BFB6A4" d="M57.6,77.5c-1.9,0-3.9-0.6-5.9-1.3c-0.5-0.2-1-0.3-1.5-0.5c-2.4-0.9-4.7-1.8-6.3-1.8
		c-3.3,0-9.1,3.5-13.7,3.5c-1.8,0-3.4-0.5-4.7-2c-1-1.1-1.8-2.9-2.3-5.4c-0.1-0.8-0.2-1.5-0.3-2.2c-0.9-0.8-1.7-1.6-2.4-2.5
		c-1.7-2-3.1-4.2-4.2-6.6c-0.2-0.5-0.4-0.9-0.6-1.4l0-0.1c-0.2-0.5-0.4-0.9-0.5-1.4l-0.1-0.1c-0.1-0.4-0.3-0.9-0.4-1.3
		c0-0.1,0-0.1-0.1-0.2c-0.1-0.4-0.2-0.8-0.3-1.3c0-0.1-0.1-0.2-0.1-0.3c-0.1-0.4-0.2-0.8-0.2-1.2c0-0.1,0-0.2-0.1-0.4
		c-0.1-0.4-0.1-0.8-0.2-1.2c0-0.1,0-0.3-0.1-0.4c0-0.4-0.1-0.8-0.1-1.2c0-0.1,0-0.3,0-0.4c0-0.5,0-1.1,0-1.6c0-0.5,0-0.9,0-1.4
		c0-0.1,0-0.3,0-0.4c0-0.3,0-0.7,0.1-1c0-0.1,0-0.2,0-0.4c0.1-0.4,0.1-0.9,0.2-1.3c0-0.1,0-0.1,0-0.2c0-0.1,0-0.2,0.1-0.3
		c-0.8,0.1-1.7,0.1-2.6,0.1c-0.8,0-1.7,0-2.6-0.1c-7.2-0.6-5.6-5.8-2-10.2l0,0c0.3-0.4,0.6-0.7,0.9-1.1l0,0c0.3-0.3,0.7-0.7,1-1v0
		c0.3-0.3,0.7-0.7,1-1l0,0c0.4-0.3,0.7-0.6,1.1-0.9c0.2-0.2,0.5-0.3,0.7-0.5c0.1,0,0.1-0.1,0.2-0.1c0.2-0.1,0.4-0.2,0.6-0.3l0.1-0.1
		c0.2-0.1,0.5-0.2,0.8-0.3l0.2-0.1c0.2-0.1,0.4-0.2,0.7-0.2c0.1,0,0.1-0.1,0.2-0.1c0.6-0.1,1.1-0.3,1.7-0.3h0.1c0.6,0,1.4,0,2,0v0.4
		l-0.1,0.1c1.1,0.1,2.2,0.4,3.1,0.7c0.1-0.2,0.3-0.3,0.5-0.5l0.1-0.1c-1.9-1.1-5.4-3.6-6.6-8.1c-1.7-6.2,0-8.1,1.6-8.4c0,0,0,0,0,0
		c1.3,0,4.2,9.8,10.8,11.7c0.1,0,0.1-0.1,0.2-0.1c0.5-0.3,0.9-0.5,1.4-0.8c0.1-0.1,0.3-0.2,0.4-0.2c0.6-0.3,1.1-0.6,1.7-0.8h0
		c3.9-1.7,8.1-2.7,12.7-2.7c4.7,0,9.1,1,13,2.9l0-0.2c1.3,0.5,2.5,1.2,3.7,1.9c6.3-2.2,9.2-11.7,10.5-11.7c0,0,0,0,0,0
		c1.5,0.3,3.3,2.2,1.6,8.4c-1.2,4.2-4.4,6.8-6.3,7.9c0.2,0.2,0.4,0.4,0.6,0.6c1.5-0.4,3.2-0.8,4.8-0.8c1.9,0,3.8,0.4,5.3,1.6
		c5.7,4.5,11.8,13.4,2.2,14.2c-1,0.1-1.8,0.1-2.7,0.1c-0.7,0-1.5,0-2.1-0.1c0.3,1.6,0.4,3.3,0.4,5c0,4.4-1,8.6-2.8,12.4
		c-0.1-0.1-0.2-0.2-0.3-0.3c-1.1,2.5-2.6,4.8-4.3,6.9c-0.9,1.1-1.9,2.1-3,3.1c-0.1,0.5-0.1,1.1-0.2,1.7c-0.3,1.7-0.8,3.1-1.4,4.1
		C61.9,76.7,59.9,77.5,57.6,77.5L57.6,77.5z M17.5,27c-0.7,1.2-1.4,2.4-2.3,3.5C16.2,29.4,17,28.2,17.5,27L17.5,27z"/>
	<path fill="#FFFFFF" d="M10.2,24c0.2-0.1,0.4-0.1,0.7-0.1C10.7,23.9,10.4,24,10.2,24L10.2,24z"/>
	<path fill="#FFFFFF" d="M11.1,23.8c0.6-0.1,1.1-0.1,1.7-0.2C12.2,23.7,11.6,23.7,11.1,23.8L11.1,23.8z"/>
	<path fill="#FFFFFF" d="M12.9,23.7c0.6,0,1.2,0.1,1.8,0.1C14.1,23.7,13.5,23.7,12.9,23.7L12.9,23.7z"/>
	<path fill="#FFFFFF" d="M3.5,29.3c0.3-0.4,0.6-0.7,1-1.1C4.1,28.5,3.8,28.9,3.5,29.3L3.5,29.3z"/>
	<path fill="#FFFFFF" d="M4.4,28.2c0.3-0.3,0.7-0.7,1-1C5.1,27.5,4.8,27.8,4.4,28.2L4.4,28.2z"/>
	<path fill="#FFFFFF" d="M5.5,27.2c0.3-0.3,0.7-0.7,1-1C6.2,26.5,5.8,26.8,5.5,27.2L5.5,27.2z"/>
	<path fill="#FFFFFF" d="M6.5,26.2c0.4-0.3,0.7-0.6,1.1-0.9C7.2,25.6,6.9,25.9,6.5,26.2L6.5,26.2z"/>
	<path fill="#FFFFFF" d="M8.5,24.7c0.2-0.1,0.4-0.2,0.6-0.3C8.9,24.5,8.7,24.6,8.5,24.7L8.5,24.7z"/>
	<path fill="#FFFFFF" d="M9.3,24.3c0.3-0.1,0.5-0.2,0.8-0.3C9.8,24.1,9.5,24.2,9.3,24.3L9.3,24.3z"/>
	<path fill="#FFFFFF" d="M7.6,25.3c0.2-0.2,0.4-0.3,0.7-0.5C8.1,25,7.8,25.1,7.6,25.3L7.6,25.3z"/>
	<path fill="#FFFFFF" d="M9.9,30.7c2.2-1.4,4-1.7,4.9-1.8c-0.1,0.2-0.2,0.4-0.3,0.6c1.2-1.9,2.5-3.8,4.1-5.4
		c-0.1,0.2-0.3,0.3-0.4,0.5c-1-0.3-2.2-0.6-3.3-0.7C13.9,26.4,12.1,28.7,9.9,30.7L9.9,30.7z"/>
	<path fill="#3E3A39" d="M8.4,31.7c0.5-0.4,1.1-0.8,1.6-1.1c2.2-2,3.6-4.4,5-6.9v-0.4c-0.7,0-1.5,0-2.1,0h-0.1
		c-0.6,0-1.2,0.2-1.7,0.3c-0.1,0-0.1,0.1-0.2,0.1c-0.2,0-0.5,0.1-0.7,0.2L10,24c-0.3,0.1-0.5,0.2-0.8,0.3l-0.1,0.1
		c-0.2,0.1-0.4,0.2-0.6,0.3c-0.1,0-0.1,0.1-0.2,0.1c-0.2,0.1-0.5,0.3-0.7,0.5c-0.4,0.3-0.7,0.6-1.1,0.9v0c-0.4,0.3-0.7,0.6-1,1h0
		c-0.3,0.3-0.7,0.7-1,1v0c-0.3,0.3-0.7,0.7-1,1.1l0,0C4.8,30.7,6.6,31.6,8.4,31.7L8.4,31.7z"/>
	<path fill="#FEDFC7" d="M9.9,30.7c-0.5,0.3-1,0.7-1.5,1.1c-1.1,0.9-2.2,1.9-3.2,3.4c0,0-1.6,2.7,6.2,1.1c0-0.2,0.1-0.3,0.1-0.5
		c0-0.1,0.1-0.3,0.1-0.4c0.1-0.3,0.2-0.6,0.3-0.8c0.1-0.2,0.1-0.3,0.2-0.5c0.1-0.3,0.2-0.6,0.3-0.8c0.1-0.1,0.1-0.3,0.2-0.4
		c0.1-0.4,0.3-0.7,0.5-1.1c0.1-0.2,0.2-0.3,0.3-0.5c0.1-0.2,0.2-0.4,0.3-0.6c0.1-0.2,0.2-0.4,0.3-0.5c0.1-0.2,0.2-0.4,0.4-0.6
		c0.1-0.2,0.2-0.4,0.3-0.6C14,28.9,12.1,29.3,9.9,30.7L9.9,30.7z"/>
	<path fill="#FFFFFF" d="M74.1,25.3c-2.8-2.2-6.8-1.8-10.1-0.9c1.3,1.4,2.4,2.9,3.4,4.5c1.7,0.3,5.7,1.5,9.1,6.2
		c0,0,1.5,2.6-5.8,1.2c0.3,1.1,0.6,2.1,0.7,3.3c1.4,0.1,3,0.1,4.8,0C85.9,38.7,79.9,29.8,74.1,25.3L74.1,25.3z"/>
	<path fill="#FEDFC7" d="M76.5,35.1c-3.4-4.7-7.3-5.9-9.1-6.2c1.4,2.3,2.5,4.7,3.3,7.4C78,37.7,76.5,35.1,76.5,35.1L76.5,35.1z"/>
	<path fill="#FFFFFF" d="M63.4,23.8c1.9-1.2,5.1-3.7,6.3-7.9c1.7-6.2,0-8.1-1.6-8.4C66.9,7.3,64,17,57.6,19.2
		C59.7,20.5,61.7,22,63.4,23.8L63.4,23.8z"/>
	<path fill="#FFFFFF" d="M16.9,73c-0.1-0.4-0.1-0.8-0.2-1.2C16.8,72.2,16.9,72.6,16.9,73L16.9,73z"/>
	<path fill="#FFFFFF" d="M64.1,75.8C64,76,64,76.3,63.9,76.5C64,76.3,64,76,64.1,75.8L64.1,75.8z"/>
	<path fill="#FFFFFF" d="M64.9,72.3c0,0.1,0,0.3-0.1,0.5C64.9,72.6,64.9,72.4,64.9,72.3L64.9,72.3z"/>
	<path fill="#FFFFFF" d="M16.6,70.3c0-0.4,0-0.9,0-1.3C16.6,69.4,16.6,69.8,16.6,70.3L16.6,70.3z"/>
	<path fill="#FFFFFF" d="M64.5,74.5c-0.1,0.3-0.1,0.6-0.2,1C64.3,75.1,64.4,74.8,64.5,74.5L64.5,74.5z"/>
	<path fill="#FFFFFF" d="M64.7,73.4c0,0.2-0.1,0.3-0.1,0.5C64.7,73.7,64.7,73.5,64.7,73.4L64.7,73.4z"/>
	<path fill="#FFFFFF" d="M65.1,70.1c0,0.1,0,0.2,0,0.4C65.1,70.3,65.1,70.2,65.1,70.1L65.1,70.1z"/>
	<path fill="#FFFFFF" d="M65,71.2c0,0.1,0,0.3,0,0.4C65,71.5,65,71.3,65,71.2L65,71.2z"/>
	<path fill="#FFFFFF" d="M16.7,71.6c-0.1-0.4-0.1-0.7-0.1-1.1C16.7,70.9,16.7,71.3,16.7,71.6L16.7,71.6z"/>
	<path fill="#FFFFFF" d="M11,50.8c-0.1-0.4-0.2-0.8-0.2-1.2C10.8,50,10.9,50.4,11,50.8L11,50.8z"/>
	<path fill="#FFFFFF" d="M10.6,49.3c-0.1-0.4-0.1-0.8-0.1-1.2C10.5,48.5,10.6,48.9,10.6,49.3L10.6,49.3z"/>
	<path fill="#FFFFFF" d="M10.3,43.1c0-0.1,0-0.3,0-0.4C10.3,42.8,10.3,43,10.3,43.1L10.3,43.1z"/>
	<path fill="#FFFFFF" d="M10.4,41.7c0-0.1,0-0.2,0-0.4C10.4,41.4,10.4,41.5,10.4,41.7L10.4,41.7z"/>
	<path fill="#FFFFFF" d="M10.6,40c0-0.1,0-0.2,0-0.3C10.6,39.8,10.6,39.9,10.6,40L10.6,40z"/>
	<path fill="#FFFFFF" d="M10.3,46.1c0-0.5-0.1-1.1-0.1-1.6C10.2,45,10.3,45.6,10.3,46.1L10.3,46.1z"/>
	<path fill="#FFFFFF" d="M11.8,53.9c-0.1-0.4-0.3-0.9-0.4-1.3C11.5,53,11.7,53.5,11.8,53.9L11.8,53.9z"/>
	<path fill="#FFFFFF" d="M11.3,52.4c-0.1-0.4-0.2-0.8-0.3-1.3C11.1,51.5,11.2,52,11.3,52.4L11.3,52.4z"/>
	<path fill="#FFFFFF" d="M45.2,44.4c-0.1-2.6,2-4.8,4.7-4.9c2.7-0.1,4.9,1.9,5,4.6c0.1,2.6-2,4.8-4.7,4.9
		C47.5,49.1,45.3,47,45.2,44.4L45.2,44.4z M31.5,49c-2.7-0.1-4.8-2.3-4.7-4.9c0.1-2.6,2.4-4.7,5-4.6c2.7,0.1,4.8,2.3,4.7,4.9
		C36.4,47,34.2,49.1,31.5,49L31.5,49z M53.9,17.4c-4-1.8-8.4-2.9-13-2.9c-4.5,0-8.8,1-12.7,2.7c2.1,7.6-2.4,17.2-5.1,24
		C20.8,47,17.5,52.7,13,56.9c1.1,2.4,2.5,4.6,4.2,6.6c0.7,0.9,1.6,1.7,2.4,2.5c-0.8-11.8,11.4-12.7,21-12.7
		c9.7,0,22.2,0.9,20.9,13.2c1-1,2-2,3-3.1c1.8-2.1,3.2-4.4,4.3-6.9c-4.4-4.2-7.5-9.7-9.8-15.3C56.4,34.5,51.9,25,53.9,17.4
		L53.9,17.4z"/>
	<path fill="#FFFFFF" d="M12.4,55.4c-0.2-0.5-0.4-0.9-0.5-1.4C12,54.5,12.2,55,12.4,55.4L12.4,55.4z"/>
	<path fill="#FFFFFF" d="M13,56.9c-0.2-0.5-0.4-0.9-0.6-1.4C12.6,56,12.8,56.4,13,56.9L13,56.9z"/>
	<path fill="#FFFFFF" d="M10.4,47.7c0-0.4-0.1-0.8-0.1-1.2C10.4,46.9,10.4,47.3,10.4,47.7L10.4,47.7z"/>
	<path fill="#FFFFFF" d="M11.5,36.2c-7.8,1.6-6.2-1.1-6.2-1.1c1-1.4,2.1-2.5,3.2-3.4c-1.9-0.1-3.6-1-4.9-2.4
		c-3.7,4.4-5.3,9.6,2,10.2c2,0.1,3.7,0.1,5.2,0C10.9,38.3,11.1,37.2,11.5,36.2L11.5,36.2z"/>
	<path fill="#FFFFFF" d="M12.2,34c-0.1,0.1-0.1,0.3-0.2,0.5C12.1,34.3,12.1,34.1,12.2,34L12.2,34z"/>
	<path fill="#FFFFFF" d="M11.7,35.3c0,0.1-0.1,0.3-0.1,0.4C11.6,35.6,11.7,35.4,11.7,35.3L11.7,35.3z"/>
	<path fill="#FFFFFF" d="M12.7,32.8c-0.1,0.1-0.1,0.3-0.2,0.4C12.6,33,12.6,32.9,12.7,32.8L12.7,32.8z"/>
	<path fill="#FFFFFF" d="M14.1,30c-0.1,0.2-0.2,0.4-0.3,0.5C13.9,30.4,14,30.2,14.1,30L14.1,30z"/>
	<path fill="#FFFFFF" d="M13.4,31.2c-0.1,0.2-0.2,0.3-0.3,0.5C13.3,31.5,13.4,31.3,13.4,31.2L13.4,31.2z"/>
	<path fill="#FFFFFF" d="M28.2,17.3c-1.3,0.6-2.6,1.3-3.8,2c-6.6-2-9.5-12-10.8-11.8C12,7.8,10.3,9.7,12,15.9c1.2,4.4,4.7,7,6.6,8.1
		C21.3,21.2,24.5,18.9,28.2,17.3L28.2,17.3z"/>
	<path fill="#3E3A39" d="M28.2,17.3L28.2,17.3L28.2,17.3c-3.6,1.6-6.9,3.9-9.6,6.7L18.5,24c-1.6,1.6-2.9,3.4-4.1,5.4
		c-0.1,0.2-0.2,0.4-0.4,0.6c-0.1,0.2-0.2,0.4-0.3,0.5c-0.1,0.2-0.2,0.4-0.3,0.6c-0.1,0.2-0.2,0.3-0.3,0.5c-0.2,0.3-0.3,0.7-0.5,1.1
		c-0.1,0.1-0.1,0.3-0.2,0.4c-0.1,0.3-0.2,0.6-0.3,0.8c-0.1,0.1-0.1,0.3-0.2,0.5c-0.1,0.3-0.2,0.5-0.3,0.8c0,0.1-0.1,0.3-0.1,0.4
		c0,0.1-0.1,0.3-0.1,0.5c-0.3,1.1-0.6,2.2-0.8,3.3c0,0.1,0,0.2-0.1,0.3c0,0.1,0,0.2,0,0.3c-0.1,0.4-0.1,0.9-0.2,1.3
		c0,0.1,0,0.2,0,0.4c0,0.3-0.1,0.7-0.1,1c0,0.1,0,0.3,0,0.4c0,0.5,0,0.9,0,1.4c0,0.5,0,1.1,0.1,1.6c0,0.1,0,0.3,0,0.4
		c0,0.4,0.1,0.8,0.1,1.2c0,0.1,0,0.3,0.1,0.4c0,0.4,0.1,0.8,0.1,1.2c0,0.1,0.1,0.3,0.1,0.4c0.1,0.4,0.1,0.8,0.2,1.2
		c0,0.1,0,0.2,0.1,0.3c0.1,0.4,0.2,0.8,0.3,1.3c0,0.1,0,0.1,0.1,0.2c0.1,0.4,0.3,0.9,0.4,1.3l0,0.1c0.2,0.5,0.3,0.9,0.5,1.4l0,0.1
		c0.2,0.5,0.4,1,0.6,1.4c4.5-4.2,7.8-9.9,10.1-15.6C25.8,34.5,30.3,24.9,28.2,17.3L28.2,17.3z"/>
	<path fill="#3E3A39" d="M67.4,28.9c-1-1.6-2.2-3.1-3.4-4.5c-0.2-0.2-0.4-0.4-0.6-0.6c-1.7-1.8-3.7-3.3-5.8-4.6
		c-1.2-0.7-2.4-1.4-3.6-1.9l0,0.2c-2,7.6,2.4,17.1,5.1,23.9c2.2,5.6,5.4,11.1,9.8,15.3c0.1,0.1,0.2,0.2,0.3,0.3
		c1.8-3.8,2.8-8,2.8-12.4c0-1.7-0.1-3.4-0.4-5c-0.2-1.1-0.4-2.2-0.7-3.3C69.9,33.6,68.8,31.2,67.4,28.9L67.4,28.9z"/>
	<path fill="#3E3A39" d="M50,42.7c1,0,1.7,0.8,1.7,1.7c0,0.3-0.1,0.6-0.2,0.8c-0.3-0.8-1-1.4-2-1.4c-0.5,0-0.9,0.1-1.2,0.4
		C48.3,43.3,49.1,42.6,50,42.7L50,42.7z M54.9,44.1c-0.1-2.6-2.4-4.7-5-4.6c-2.7,0.1-4.8,2.3-4.7,4.9c0.1,2.6,2.3,4.7,5,4.6
		C52.9,48.9,55,46.7,54.9,44.1L54.9,44.1z"/>
	<path fill="#FFFFFF" d="M51.4,45.2c0.1-0.2,0.2-0.5,0.2-0.8c0-0.9-0.7-1.7-1.7-1.7c-0.9,0-1.7,0.6-1.8,1.5c0.3-0.3,0.7-0.4,1.2-0.4
		C50.5,43.8,51.1,44.5,51.4,45.2L51.4,45.2z"/>
	<path fill="#3E3A39" d="M31.7,42.7c0.9,0,1.7,0.6,1.8,1.5c-0.3-0.3-0.7-0.4-1.2-0.4c-1,0-1.7,0.7-1.9,1.4c-0.1-0.2-0.3-0.5-0.3-0.8
		C30,43.5,30.8,42.7,31.7,42.7L31.7,42.7z M36.5,44.4c0.1-2.6-2-4.8-4.7-4.9c-2.7-0.1-4.9,1.9-5,4.6c-0.1,2.6,2,4.8,4.7,4.9
		C34.2,49.1,36.4,47,36.5,44.4L36.5,44.4z"/>
	<path fill="#FFFFFF" d="M32.3,43.8c0.5,0,0.9,0.1,1.2,0.4c-0.1-0.9-0.9-1.6-1.8-1.5c-1,0-1.7,0.8-1.7,1.7c0,0.3,0.1,0.6,0.3,0.8
		C30.6,44.5,31.3,43.8,32.3,43.8L32.3,43.8z"/>
	<path fill="#FEDFC7" d="M27.5,61.2c1.3,0,2.3,1,2.3,2.3c0,1.2-1,2.3-2.3,2.3c-1.3,0-2.3-1-2.3-2.3C25.2,62.2,26.2,61.2,27.5,61.2
		L27.5,61.2z M52.6,61.2c1.3,0,2.3,1,2.3,2.3c0,1.2-1,2.3-2.3,2.3c-1.3,0-2.3-1-2.3-2.3C50.2,62.2,51.3,61.2,52.6,61.2L52.6,61.2z
		 M22.2,73.6C26.8,78.8,36,72,40.6,72c1.7,0,3.9,0.9,6.3,1.8c0.5,0.2,1,0.3,1.5,0.5c4.4,1.5,9,2.5,11.5-2c0.6-1,1-2.4,1.4-4.1
		c0.1-0.6,0.2-1.1,0.2-1.7c1.2-12.3-11.3-13.2-20.9-13.2c-9.5,0-21.8,0.9-21,12.7c0,0.7,0.1,1.4,0.3,2.2
		C20.4,70.8,21.2,72.5,22.2,73.6L22.2,73.6z"/>
	<path fill="#E77F4C" d="M27.5,65.7c1.3,0,2.3-1,2.3-2.3c0-1.2-1-2.3-2.3-2.3c-1.3,0-2.3,1-2.3,2.3C25.2,64.7,26.2,65.7,27.5,65.7
		L27.5,65.7z"/>
	<path fill="#E77F4C" d="M52.6,65.7c1.3,0,2.3-1,2.3-2.3c0-1.2-1-2.3-2.3-2.3c-1.3,0-2.3,1-2.3,2.3C50.2,64.7,51.3,65.7,52.6,65.7
		L52.6,65.7z"/>
</g>
</svg>
