<?xml version="1.0" encoding="utf-8"?>
<!-- Generator: Adobe Illustrator 18.0.0, SVG Export Plug-In . SVG Version: 6.00 Build 0)  -->
<!DOCTYPE svg PUBLIC "-//W3C//DTD SVG 1.1//EN" "http://www.w3.org/Graphics/SVG/1.1/DTD/svg11.dtd">
<svg version="1.1" id="Warstwa_1" xmlns="http://www.w3.org/2000/svg" xmlns:xlink="http://www.w3.org/1999/xlink" x="0px" y="0px"
	 viewBox="0 0 85 85" enable-background="new 0 0 85 85" xml:space="preserve">
<g>
	<path fill="#BFB6A4" d="M75.8,79.9c-4.6,0-4.9-6.8-5.6-16.2c-4.9,6.8-15.3,11.9-25.8,12.2C34,75.6,23.6,70.5,18.7,63.7
		c-0.7,9.3-1,16.2-5.6,16.2c-1,0-2.2-0.3-3.6-1c-14.8-7,3.1-63.5,22.7-67.9c2.9-2.1,6.9-3.4,12.2-3.5c5.3,0.1,9.3,1.4,12.2,3.5
		c19.6,4.4,37.6,60.9,22.7,67.9C78,79.6,76.8,79.9,75.8,79.9L75.8,79.9z"/>
	<path fill-rule="evenodd" clip-rule="evenodd" fill="#4B271A" d="M75.5,76.6c15.2-7.2-4.1-66.5-24.3-68.2c-1.2,1.3-2.2,2.5-3.4,4.1
		c-1.9,2.6-1.3,6.1,1.4,8C76.4,41,58.4,84.7,75.5,76.6L75.5,76.6z"/>
	<path fill-rule="evenodd" clip-rule="evenodd" fill="#5E2D17" d="M78,72.9c7.8-14.6-9.2-62-27.1-64.6l-0.3,0.4
		c-1.9,2.6-1.3,6.2,1.4,8C79,37.2,61.1,80.7,78,72.9L78,72.9z"/>
	<path fill-rule="evenodd" clip-rule="evenodd" fill="#4B271A" d="M5.6,76.6C-9.6,69.3,9.6,10.1,29.9,8.4c1.2,1.3,2.2,2.5,3.4,4.1
		c1.9,2.6,1.3,6.1-1.4,8C4.7,41,22.7,84.7,5.6,76.6L5.6,76.6z"/>
	<path fill-rule="evenodd" clip-rule="evenodd" fill="#5E2D17" d="M3.1,72.9c-7.8-14.6,9.2-62,27.2-64.6l0.3,0.4
		c1.9,2.6,1.3,6.2-1.4,8C2.1,37.2,19.9,80.7,3.1,72.9L3.1,72.9z"/>
	<path fill-rule="evenodd" clip-rule="evenodd" fill="#C29860" d="M40.5,73.5L40.5,73.5c17.7-0.4,35.2-14.7,26.2-27.7
		c-7.8-11.3,0-40.2-26.2-40.7C14.4,5.6,22.2,34.5,14.3,45.8C5.3,58.8,22.9,73.2,40.5,73.5L40.5,73.5z"/>
	<path fill-rule="evenodd" clip-rule="evenodd" fill="#5E2D17" d="M57.6,58.9c0,6.8-8.2,12.2-18.4,12.2s-18.4-5.5-18.4-12.2
		c0-6.8,8.2-12.2,18.4-12.2S57.6,52.2,57.6,58.9L57.6,58.9z"/>
	<path fill-rule="evenodd" clip-rule="evenodd" fill="#874D2F" d="M51.8,56.5c0,2.8-3.4,5.1-7.7,5.1s-7.7-2.3-7.7-5.1
		c0-2.8,3.5-5.1,7.7-5.1S51.8,53.7,51.8,56.5L51.8,56.5z"/>
	<path fill="#FFFFFF" d="M25.5,34.5c0.3-1.3,1.6-2.1,2.9-1.9c1.3,0.3,2.2,1.5,1.9,2.8c0,0.2-0.1,0.3-0.2,0.5
		c-0.3-0.4-0.8-0.7-1.5-0.9c-1.3-0.2-2.3,0.3-2.9,1.1C25.5,35.7,25.4,35.1,25.5,34.5L25.5,34.5z M27.1,38.7c2.1,0.4,4.2-0.9,4.6-3
		c0.4-2.1-1-4.1-3.1-4.5c-2.1-0.4-4.2,0.9-4.6,3C23.7,36.3,25,38.3,27.1,38.7L27.1,38.7z"/>
	<path fill="#0D0D0D" d="M28.7,35.1c0.7,0.1,1.2,0.4,1.5,0.9c0.1-0.2,0.1-0.3,0.2-0.5c0.3-1.3-0.6-2.6-1.9-2.8
		c-1.3-0.3-2.6,0.6-2.9,1.9c-0.1,0.6,0,1.2,0.3,1.6C26.4,35.3,27.4,34.8,28.7,35.1L28.7,35.1z"/>
	<path fill="#FFFFFF" d="M55.3,36.1c-0.6-0.8-1.7-1.3-2.9-1.1c-0.7,0.1-1.2,0.4-1.5,0.9c-0.1-0.2-0.1-0.3-0.2-0.5
		c-0.3-1.3,0.6-2.6,1.9-2.8c1.3-0.3,2.6,0.6,2.9,1.9C55.7,35.1,55.6,35.7,55.3,36.1L55.3,36.1z M57,34.2c-0.4-2.1-2.5-3.4-4.6-3
		c-2.1,0.4-3.5,2.4-3.1,4.5c0.4,2.1,2.5,3.4,4.6,3C56,38.3,57.4,36.3,57,34.2L57,34.2z"/>
	<path fill="#0D0D0D" d="M52.4,35.1c-0.7,0.1-1.2,0.4-1.5,0.9c-0.1-0.2-0.1-0.3-0.2-0.5c-0.3-1.3,0.6-2.6,1.9-2.8
		c1.3-0.3,2.6,0.6,2.9,1.9c0.1,0.6,0,1.2-0.3,1.6C54.7,35.3,53.7,34.8,52.4,35.1L52.4,35.1z"/>
</g>
</svg>
