<?xml version="1.0" encoding="utf-8"?>
<!-- Generator: Adobe Illustrator 18.0.0, SVG Export Plug-In . SVG Version: 6.00 Build 0)  -->
<!DOCTYPE svg PUBLIC "-//W3C//DTD SVG 1.1//EN" "http://www.w3.org/Graphics/SVG/1.1/DTD/svg11.dtd">
<svg version="1.1" id="Warstwa_1" xmlns="http://www.w3.org/2000/svg" xmlns:xlink="http://www.w3.org/1999/xlink" x="0px" y="0px"
	 viewBox="0 0 85 85" enable-background="new 0 0 85 85" xml:space="preserve">
<g>
	<path fill="#BFB6A4" d="M44.4,77.2c-11.8,0-22.2-5.8-28.4-14.6c-3.8-5.4-6.1-12-6.1-19c0-3.7,0.6-7.2,1.7-10.5
		C1.1,27.2,4,12.8,4,12.8s0.5,1,6.1,1c0.7,0,1.4,0,2.2,0c0.2,0,0.5,0,0.7,0c5.5,0,8.6,2.5,9.7,3.7c5.9-4.7,13.4-7.5,21.6-7.5
		c8.1,0,15.6,2.8,21.5,7.4c1.2-1.4,4.2-4.1,10-4.4c7.6-0.3,8.2-1.6,8.2-1.6s4.4,15.2-7.1,21.5c1.2,3.4,1.8,7,1.8,10.8
		c0,7.1-2.2,13.6-6,19C66.6,71.4,56.2,77.2,44.4,77.2L44.4,77.2z"/>
	<path fill="#FBC6AD" d="M70.8,24.9c0.7,0,1.4-0.2,2-0.6c2.1-1.6,1.6-6.3,3.2-8.1c0,0-7,0.5-7.9,4.3c0,0.1,0,0.2-0.1,0.4
		C69.1,22.2,70,23.5,70.8,24.9L70.8,24.9z"/>
	<path fill="#FBC6AD" d="M5.5,17.4c1.8,1.6,1.7,6.3,3.9,7.8c0.3,0.2,0.7,0.4,1.1,0.4c0.9-1.7,2-3.3,3.2-4.8
		C12.2,17.3,5.5,17.4,5.5,17.4L5.5,17.4z"/>
	<path fill="#FDE1DB" d="M9.4,25.1c-2.3-1.5-2.1-6.2-3.9-7.8c0,0,6.7-0.1,8.2,3.5c-1.2,1.5-2.2,3.1-3.2,4.8
		C10.1,25.5,9.7,25.4,9.4,25.1L9.4,25.1z M24.8,37.6c0.2,1.9-1.1,3.6-3,3.8c-1.9,0.2-3.6-1.1-3.9-2.9c-0.2-1.9,1.1-3.6,3-3.8
		C22.8,34.4,24.5,35.7,24.8,37.6L24.8,37.6z M56.9,37.6c0.2-1.9,2-3.2,3.9-3c1.9,0.2,3.2,1.9,3,3.8c-0.2,1.9-2,3.2-3.9,2.9
		C58,41.1,56.7,39.4,56.9,37.6L56.9,37.6z M76.1,16.2c-1.7,1.8-1.1,6.4-3.2,8.1c-0.6,0.5-1.3,0.7-2,0.6c-0.8-1.4-1.7-2.7-2.7-4
		c0-0.1,0-0.3,0.1-0.4C69.1,16.7,76.1,16.2,76.1,16.2L76.1,16.2z M40.8,66.1c-10.1,0-18.2-5-18.2-11.1s8.2-11.1,18.2-11.1
		s18.2,5,18.2,11.1S50.9,66.1,40.8,66.1L40.8,66.1z M40.8,75.1c11.8,0,22.2-5.8,28.4-14.6c3.8-5.4,6-12,6-19c0-3.8-0.6-7.4-1.8-10.8
		c11.5-6.3,7.1-21.5,7.1-21.5s-0.6,1.3-8.2,1.6c-5.8,0.2-8.9,3-10,4.4C56.4,10.6,49,7.8,40.8,7.8c-8.2,0-15.7,2.8-21.6,7.5
		c-1.2-1.2-4.5-3.9-10.4-3.6c-7.6,0.3-8.3-0.9-8.3-0.9S-2.4,25.1,8.1,31C7,34.3,6.4,37.8,6.4,41.5c0,7.1,2.2,13.6,6,19
		C18.7,69.3,29.1,75.1,40.8,75.1L40.8,75.1z"/>
	<path fill="#F89C6C" d="M46.7,58.7c-2.1,0-3.9-1.7-3.9-3.7c0-2.1,1.7-3.8,3.9-3.8c2.1,0,3.9,1.7,3.9,3.8
		C50.6,57,48.8,58.7,46.7,58.7L46.7,58.7z M35,58.7c-2.1,0-3.9-1.7-3.9-3.7c0-2.1,1.7-3.8,3.9-3.8c2.1,0,3.8,1.7,3.8,3.8
		C38.8,57,37.1,58.7,35,58.7L35,58.7z M40.8,43.8c-10.1,0-18.2,5-18.2,11.1s8.2,11.1,18.2,11.1s18.2-5,18.2-11.1
		S50.9,43.8,40.8,43.8L40.8,43.8z"/>
	<path fill="#D16F28" d="M35,51.2c-2.1,0-3.9,1.7-3.9,3.8c0,2.1,1.7,3.7,3.9,3.7c2.1,0,3.8-1.7,3.8-3.7C38.8,52.9,37.1,51.2,35,51.2
		L35,51.2z"/>
	<path fill="#D16F28" d="M46.7,51.2c-2.1,0-3.9,1.7-3.9,3.8c0,2.1,1.7,3.7,3.9,3.7c2.1,0,3.9-1.7,3.9-3.7
		C50.6,52.9,48.8,51.2,46.7,51.2L46.7,51.2z"/>
	<path fill="#FFFFFF" d="M58.2,37.7c0.1-1.2,1.2-2,2.4-1.9c1.2,0.1,2.1,1.2,1.9,2.4c-0.1,0.5-0.3,1-0.7,1.3c-0.3-0.8-1-1.6-2.2-1.7
		c-0.6-0.1-1.1,0.1-1.5,0.3C58.2,38,58.2,37.9,58.2,37.7L58.2,37.7z M60,41.4c1.9,0.2,3.6-1.1,3.9-2.9c0.2-1.9-1.1-3.6-3-3.8
		c-1.9-0.2-3.7,1.1-3.9,3C56.7,39.4,58,41.1,60,41.4L60,41.4z"/>
	<path fill="#35363C" d="M59.7,37.9c1.1,0.1,1.9,0.8,2.2,1.7c0.4-0.3,0.6-0.8,0.7-1.3c0.1-1.2-0.7-2.2-1.9-2.4
		c-1.2-0.2-2.3,0.7-2.4,1.9c0,0.2,0,0.3,0,0.5C58.6,37.9,59.1,37.8,59.7,37.9L59.7,37.9z"/>
	<path fill="#FFFFFF" d="M21,35.9c1.2-0.2,2.3,0.7,2.4,1.9c0,0.2,0,0.3,0,0.5c-0.4-0.3-0.9-0.4-1.5-0.3c-1.1,0.1-1.8,0.8-2.2,1.7
		c-0.4-0.3-0.6-0.8-0.7-1.3C19,37.1,19.8,36,21,35.9L21,35.9z M17.9,38.4c0.2,1.9,2,3.2,3.9,2.9c1.9-0.2,3.2-1.9,3-3.8
		c-0.2-1.9-2-3.2-3.9-3C19,34.9,17.6,36.5,17.9,38.4L17.9,38.4z"/>
	<path fill="#35363C" d="M19.8,39.6c0.3-0.8,1-1.6,2.2-1.7c0.6-0.1,1.1,0.1,1.5,0.3c0-0.2,0-0.3,0-0.5c-0.1-1.2-1.3-2-2.4-1.9
		c-1.2,0.1-2.1,1.2-1.9,2.4C19.2,38.8,19.4,39.3,19.8,39.6L19.8,39.6z"/>
</g>
</svg>
