<?xml version="1.0" encoding="utf-8"?>
<!-- Generator: Adobe Illustrator 18.0.0, SVG Export Plug-In . SVG Version: 6.00 Build 0)  -->
<!DOCTYPE svg PUBLIC "-//W3C//DTD SVG 1.1//EN" "http://www.w3.org/Graphics/SVG/1.1/DTD/svg11.dtd">
<svg version="1.1" id="Warstwa_1" xmlns="http://www.w3.org/2000/svg" xmlns:xlink="http://www.w3.org/1999/xlink" x="0px" y="0px"
	 viewBox="0 0 85 85" enable-background="new 0 0 85 85" xml:space="preserve">
<g>
	<path fill="#BFB6A4" d="M44.1,76.1c-4.8-0.1-9.1-3.1-12.6-7.4c-0.5,0.4-1.2,0.7-1.9,0.7c-1.6,0-2.8-1.1-3-2.6
		c-0.5,0.5-1.3,0.9-2.1,0.9c-1.7,0-3-1.3-3-2.9v-0.1l-0.3,0c0,0-0.5-0.3-0.7-0.5c-0.6-0.6-0.9-1.4-0.9-2.2c0-0.8,0.3-1.6,0.9-2.2
		c0.4-0.4,0.9-0.6,1.5-0.8l0-0.2l0,0c-0.2,0-0.5,0.1-0.7,0.1c-1.5,0-2.7-1-3.1-2.4c-0.4-1.7,0.7-3.3,2.4-3.7h0l0-0.1
		c-0.2,0-0.4,0.1-0.6,0.1c-1.5,0-2.8-1-3.1-2.4h0c-0.4-1.7,0.7-3.3,2.4-3.7l0-0.1l-0.1,0c-0.2,0-0.4,0.1-0.5,0.1
		c-1.1,0-2-0.5-2.6-1.4c-4.1,4.9-8.6,9.1-10.8,9.1c-0.4,0-0.7-0.1-0.9-0.4c-4.7-3.4,4.9-25.1,14.2-27.9h0c-0.2-0.8,0-1.6,0.5-2.3
		c0.6-0.9,1.6-1.4,2.6-1.4c0.6,0,1.2,0.2,1.7,0.5c0.1,0,0.1,0.1,0.2,0.1l0.1-0.1l-0.2-0.1c-1.1-1.3-1-3.2,0.3-4.3
		c0.6-0.5,1.3-0.8,2.1-0.8c0.9,0,1.8,0.4,2.4,1.1c0,0.1,0.1,0.1,0.1,0.2l0.1-0.1c0-0.1-0.1-0.1-0.1-0.2c-0.8-1.5-0.1-3.4,1.5-4.1
		c0.4-0.2,0.9-0.3,1.4-0.3c1.2,0,2.3,0.6,2.8,1.7c0,0.1,0.1,0.1,0.1,0.2l0.1,0c0-0.1,0-0.1-0.1-0.2c-0.4-1.7,0.7-3.3,2.4-3.7
		c0.2-0.1,0.5-0.1,0.7-0.1c1.5,0,2.8,1,3.1,2.4c0,0.1,0,0.1,0,0.2l0.1,0c0-0.1,0-0.1,0-0.2c0-2.6,2.1-3.8,4.2-3.8
		c2.2,0,4.5,1.3,4.5,3.8c0,0.1,0,0.1,0,0.2l0.1,0c0-0.1,0-0.1,0-0.2c0.3-1.4,1.6-2.4,3.1-2.4c0.2,0,0.5,0,0.7,0.1
		c1.7,0.4,2.8,2,2.4,3.7c0,0.1-0.1,0.1-0.1,0.2l0.1,0c0-0.1,0.1-0.1,0.1-0.2c0.5-1.1,1.7-1.7,2.8-1.7c0.5,0,0.9,0.1,1.4,0.3
		c1.6,0.8,2.2,2.6,1.5,4.1c0,0.1-0.1,0.1-0.1,0.2l0.1,0.1c0-0.1,0.1-0.1,0.1-0.2c0.6-0.7,1.5-1.1,2.4-1.1c0.7,0,1.5,0.2,2.1,0.8
		c1.3,1.1,1.5,3,0.3,4.3l-0.2,0.1L66,23c0.1-0.1,0.1-0.1,0.2-0.1c0.5-0.3,1.1-0.5,1.7-0.5c1,0,2,0.5,2.6,1.4
		c0.6,0.9,0.6,1.9,0.3,2.8c8.9,4.1,17.5,24.2,13.1,27.4c-0.2,0.3-0.5,0.4-0.9,0.4c-2.1,0-6.2-3.8-10.2-8.4c-0.5,0.4-1.2,0.6-1.9,0.6
		c-0.2,0-0.3,0-0.5-0.1l-0.1,0l0,0.1c1.7,0.4,2.8,2,2.4,3.7l0,0c-0.3,1.4-1.6,2.4-3.1,2.4c-0.2,0-0.4,0-0.6-0.1l0,0.1h0
		c1.7,0.4,2.8,2,2.4,3.7c-0.3,1.4-1.6,2.4-3.1,2.4c-0.2,0-0.4,0-0.7-0.1l0,0l0,0.2c0.5,0.1,1.1,0.4,1.5,0.8c0.6,0.6,0.9,1.4,0.9,2.2
		c0,0.8-0.3,1.6-0.9,2.2c-0.2,0.2-0.7,0.4-0.7,0.5l-0.3,0v0.1c0,1.6-1.3,2.9-3,2.9c-0.8,0-1.6-0.3-2.1-0.9c-0.2,1.5-1.5,2.6-3,2.6
		c-0.9,0-1.6-0.3-2.2-0.9c-0.4,1-1.4,1.7-2.5,1.8C52,73.7,48.2,75.9,44.1,76.1L44.1,76.1z"/>
	<path fill="#BFB6A4" d="M21.1,64.5L21.1,64.5L21.1,64.5z"/>
	<path fill="#BFB6A4" d="M68.4,64.5L68.4,64.5L68.4,64.5z"/>
	<path fill-rule="evenodd" clip-rule="evenodd" fill="#F6EDEB" d="M80.8,52.1c-3.3,3.5-21-19.1-21.1-23.5c0,0-2.3-7.1,6.9-4.4
		C75.8,27,85.4,48.8,80.8,52.1L80.8,52.1z"/>
	<path fill-rule="evenodd" clip-rule="evenodd" fill="#DD5C71" d="M76.3,50.7c-5.1-4-12.5-13.5-15.4-18.9c-0.1-1.4,0.6-3.5,5.3-2.1
		c6.9,2,14,18.2,10.6,20.7C76.6,50.6,76.5,50.7,76.3,50.7L76.3,50.7z"/>
	<path fill-rule="evenodd" clip-rule="evenodd" fill="#F6EDEB" d="M1.2,52.1c3.3,3.5,21-19.1,21.1-23.5c0,0,2.3-7.1-6.9-4.4
		C6.1,27-3.5,48.8,1.2,52.1L1.2,52.1z"/>
	<path fill-rule="evenodd" clip-rule="evenodd" fill="#DD5C71" d="M5.7,50.7c5.1-4,12.5-13.5,15.4-18.9c0-1.4-0.6-3.5-5.3-2.1
		c-6.9,2-14,18.2-10.6,20.7C5.3,50.6,5.5,50.7,5.7,50.7L5.7,50.7z"/>
	<path fill-rule="evenodd" clip-rule="evenodd" fill="#FFFFFF" d="M37.3,12.8c0,0.1,0,0.1,0,0.2l-0.1,0c0-0.1,0-0.1,0-0.2
		c-0.4-1.7-2-2.7-3.7-2.3c-1.7,0.4-2.8,2-2.4,3.7c0,0.1,0,0.1,0.1,0.2l-0.1,0c0-0.1,0-0.1-0.1-0.2c-0.8-1.5-2.6-2.2-4.2-1.4
		c-1.6,0.7-2.2,2.6-1.5,4.1c0,0.1,0.1,0.1,0.1,0.2l-0.1,0.1c0-0.1-0.1-0.1-0.1-0.2c-1.1-1.3-3.1-1.4-4.4-0.3c-1.3,1.1-1.5,3-0.3,4.3
		l0.2,0.1l-0.1,0.1c-0.1-0.1-0.1-0.1-0.2-0.1c-1.5-0.9-3.4-0.5-4.4,0.9c-1,1.4-0.6,3.3,0.9,4.3c0.1,0,0.1,0.1,0.2,0.1l-0.1,0.1
		c-0.1,0-0.1-0.1-0.2-0.1c-1.7-0.5-3.4,0.4-3.9,2.1c-0.5,1.6,0.5,3.4,2.1,3.8c0.1,0,0.2,0,0.2,0.1l0,0.1c-0.1,0-0.2,0-0.2,0
		c-1.7,0-3.1,1.4-3.1,3.1c0,1.7,1.4,3.1,3.2,3.1l0,0l0.2,0l0,0.1H15c-1.7,0.3-2.9,1.9-2.6,3.6v0c0.3,1.5,1.6,2.6,3.1,2.6
		c0.2,0,0.3,0,0.5-0.1l0.1,0l0,0.1c-1.7,0.4-2.8,2-2.4,3.7h0c0.3,1.4,1.6,2.4,3.1,2.4c0.2,0,0.4,0,0.6-0.1l0,0.1l0,0
		c-1.7,0.4-2.8,2-2.4,3.7c0.3,1.4,1.6,2.4,3.1,2.4c0.2,0,0.5,0,0.7-0.1h0l0,0.1c-0.6,0.1-1.1,0.4-1.5,0.8c-0.6,0.6-0.9,1.4-0.9,2.2
		s0.3,1.6,0.9,2.2c0.2,0.2,0.9,0.5,0.6,0.5l0.4,0v0.1c0,1.6,1.3,2.9,3,2.9c0.8,0,1.6-0.3,2.1-0.9c0.2,1.5,1.4,2.6,3,2.6
		c0.8,0,1.6-0.3,2.2-0.9c0.4,1.1,1.5,1.8,2.8,1.8c0.6,0,1.2-0.2,1.6-0.5c0.5,0.8,1.5,1.3,2.5,1.3c1.7,0,3-1.3,3-2.9s-1.3-2.9-3-2.9
		c-0.6,0-1.2,0.2-1.6,0.5c-0.2-0.3-0.5-0.6-0.9-0.8c2.4,0,4.9,0,7.4-0.1c0.4,0,0.8,0,1.2,0c0.4,0,0.8,0,1.2,0c2.5,0.1,5,0.1,7.4,0.1
		c-0.3,0.2-0.6,0.5-0.9,0.8c-0.5-0.3-1-0.5-1.7-0.5c-1.6,0-3,1.3-3,2.9s1.3,2.9,3,2.9c1,0,2-0.5,2.5-1.3c0.5,0.3,1,0.5,1.6,0.5
		c1.3,0,2.3-0.8,2.8-1.8c0.6,0.5,1.3,0.9,2.2,0.9c1.6,0,2.8-1.1,3-2.6c0.5,0.5,1.3,0.9,2.1,0.9c1.7,0,3-1.3,3-2.9v-0.1l0.4,0
		c-0.3,0.1,0.4-0.3,0.6-0.5c0.6-0.6,0.9-1.4,0.9-2.2s-0.3-1.6-0.9-2.2c-0.4-0.4-0.9-0.6-1.5-0.8l0-0.1l0,0c0.2,0,0.5,0.1,0.7,0.1
		c1.5,0,2.8-1,3.1-2.4c0.4-1.7-0.7-3.3-2.4-3.7l0,0l0-0.1c0.2,0,0.4,0.1,0.6,0.1c1.5,0,2.7-1,3.1-2.4h0c0.4-1.7-0.7-3.3-2.4-3.7
		l0-0.1l0.1,0c0.2,0.1,0.4,0.1,0.5,0.1c1.5,0,2.8-1.1,3.1-2.6v0c0.3-1.7-0.9-3.3-2.6-3.6h-0.1l0-0.1l0.2,0l0,0
		c1.7,0,3.2-1.4,3.2-3.1c0-1.7-1.4-3.1-3.1-3.1c-0.1,0-0.2,0-0.2,0l0-0.1c0.1,0,0.2,0,0.2-0.1c1.7-0.5,2.6-2.2,2.1-3.8
		c-0.5-1.6-2.3-2.6-3.9-2.1c-0.1,0-0.1,0.1-0.2,0.1l-0.1-0.1c0.1,0,0.1-0.1,0.2-0.1c1.5-0.9,1.9-2.9,0.9-4.3
		c-0.9-1.4-2.9-1.8-4.4-0.9c-0.1,0-0.1,0.1-0.2,0.1l-0.1-0.1L63,21c1.1-1.3,1-3.2-0.3-4.3c-1.3-1.1-3.3-1-4.4,0.3
		c-0.1,0.1-0.1,0.1-0.1,0.2L58,17.1c0-0.1,0.1-0.1,0.1-0.2c0.8-1.5,0.1-3.4-1.5-4.1c-1.6-0.8-3.4-0.1-4.2,1.4c0,0.1-0.1,0.1-0.1,0.2
		l-0.1,0c0-0.1,0-0.1,0.1-0.2c0.4-1.7-0.7-3.3-2.4-3.7c-1.7-0.4-3.4,0.7-3.8,2.3c0,0.1,0,0.1,0,0.2L46,13c0-0.1,0-0.1,0-0.2
		C46,7.9,37.3,7.5,37.3,12.8L37.3,12.8z"/>
	<path fill-rule="evenodd" clip-rule="evenodd" fill="#FFD8A4" d="M41,28.6H29c-6.6,0-12,5.3-12,11.7c0,7.2,9.6,33.5,24,33.9
		c14.4-0.4,24-26.7,24-33.9c0-6.5-5.4-11.7-12-11.7H41z"/>
	<path fill-rule="evenodd" clip-rule="evenodd" fill="#FFFFFF" d="M41.6,27.5c0.9,0,1.8,0.4,2.3,1c0.3-1.4,1.5-2.4,3-2.4
		c1,0,2,0.5,2.5,1.3c0.3-1.3,1.5-2.2,2.9-2.2c0.9,0,1.7,0.4,2.3,1c0.5-0.6,1.4-1.1,2.3-1.1c1.7,0,3,1.3,3,2.9c0,1.6-1.4,2.9-3,2.9
		c-0.9,0-1.7-0.4-2.3-1c-0.6,0.7-1.4,1.1-2.4,1.1c-1,0-2-0.5-2.5-1.3c-0.3,1.3-1.5,2.2-3,2.2c-0.9,0-1.7-0.4-2.3-1
		c-0.3,1.4-1.5,2.4-3,2.4h0h-0.1c-1.5,0-2.7-1-3-2.4c-0.6,0.6-1.4,1-2.3,1c-1.4,0-2.6-0.9-2.9-2.2c-0.5,0.8-1.5,1.3-2.5,1.3
		c-0.9,0-1.8-0.4-2.3-1.1c-0.6,0.6-1.4,1-2.3,1c-1.7,0-3-1.3-3-2.9c0-1.6,1.4-2.9,3-2.9c0.9,0,1.8,0.4,2.4,1.1c0.6-0.6,1.4-1,2.3-1
		c1.4,0,2.6,0.9,2.9,2.2c0.6-0.8,1.5-1.3,2.5-1.3c1.5,0,2.7,1,3,2.4C39.8,27.9,40.6,27.5,41.6,27.5L41.6,27.5z"/>
	<path fill-rule="evenodd" clip-rule="evenodd" fill="#FFFFFF" d="M22.3,28.6c0.3-0.6,3.5,4.6-2.7,5.4c-0.6,0.1,2,2.4-0.7,4.5
		c-0.8,0.6,1.6,2.4-0.2,4.1c-0.8,0.7,1.6,1,0.5,4.2c0,0,2.2,4.1-0.5,3.7c-0.8-0.1-2.8-3.4-2.2-5.1c0.4-1.2-2-6.1,0-11.2
		c1.4-3.6-1.2-2.9,4.5-5.3c0.2-0.1,1.3-0.4,1.4-0.3L22.3,28.6z"/>
	<path fill-rule="evenodd" clip-rule="evenodd" fill="#FFFFFF" d="M59.2,27.5c-0.3-0.6-3.5,4.6,2.7,5.4c0.6,0.1-2,2.4,0.7,4.5
		c0.8,0.6-1.6,2.4,0.2,4.1c0.8,0.7-1.6,1-0.5,4.2c0,0-2.2,4.1,0.5,3.8c0.8-0.1,2.8-3.4,2.2-5.1c-0.4-1.2,2-6.1,0-11.2
		c-1.4-3.6,1.2-2.9-4.6-5.3c-0.2-0.1-1.2-0.4-1.4-0.3L59.2,27.5z"/>
	<path fill="#FFFFFF" d="M27,41.9c0.2-1.2,1.4-2,2.7-1.7c1.2,0.2,2,1.4,1.8,2.6c0,0.2-0.1,0.3-0.1,0.4c-0.3-0.4-0.7-0.6-1.4-0.8
		c-1.2-0.2-2.1,0.3-2.7,1C27,43,26.9,42.5,27,41.9L27,41.9z M28.5,45.8c1.9,0.4,3.8-0.9,4.2-2.7c0.4-1.9-0.9-3.7-2.8-4.1
		c-1.9-0.4-3.8,0.9-4.2,2.8C25.3,43.6,26.6,45.4,28.5,45.8L28.5,45.8z"/>
	<path fill="#0D0D0D" d="M29.9,42.4c0.6,0.1,1.1,0.4,1.4,0.8c0.1-0.1,0.1-0.3,0.1-0.4c0.2-1.2-0.5-2.4-1.8-2.6
		c-1.2-0.2-2.4,0.5-2.7,1.7c-0.1,0.5,0,1.1,0.2,1.5C27.8,42.7,28.8,42.2,29.9,42.4L29.9,42.4z"/>
	<path fill="#FFFFFF" d="M55.3,43.4c-0.6-0.7-1.5-1.2-2.7-1c-0.6,0.1-1.1,0.4-1.4,0.8c-0.1-0.1-0.1-0.3-0.1-0.4
		c-0.2-1.2,0.5-2.4,1.8-2.6c1.2-0.2,2.4,0.5,2.7,1.7C55.6,42.5,55.5,43,55.3,43.4L55.3,43.4z M56.8,41.7c-0.4-1.9-2.3-3.1-4.2-2.8
		c-1.9,0.4-3.2,2.2-2.8,4.1c0.4,1.9,2.3,3.1,4.2,2.7C55.9,45.4,57.2,43.6,56.8,41.7L56.8,41.7z"/>
	<path fill="#0D0D0D" d="M52.6,42.4c-0.6,0.1-1.1,0.4-1.4,0.8c-0.1-0.1-0.1-0.3-0.1-0.4c-0.2-1.2,0.5-2.4,1.8-2.6
		c1.2-0.2,2.4,0.5,2.7,1.7c0.1,0.5,0,1.1-0.2,1.5C54.7,42.7,53.7,42.2,52.6,42.4L52.6,42.4z"/>
	<path fill-rule="evenodd" clip-rule="evenodd" fill="#0D0D0D" d="M41,56.4c-0.2,0-0.3,0-0.5,0v7.7c-1,1.8-2.3,2.8-3.8,3
		c-3.3,0.4-7.7-3.3-7.9-3.2c3.5,3.8,9,6.1,12.3,1.3c3.3,4.8,8.8,2.5,12.3-1.3c-0.2-0.2-4.7,3.6-7.9,3.2c-1.5-0.2-2.8-1.2-3.8-3v-7.7
		C41.3,56.4,41.2,56.4,41,56.4L41,56.4z"/>
	<path fill-rule="evenodd" clip-rule="evenodd" fill="#DD5C71" d="M41,48.9c-8.3-0.1-8.2,2.9-3.9,5.8c1.6,1.1,2.9,1.8,3.9,2.3
		c1-0.5,2.3-1.2,3.9-2.3C49.2,51.8,49.3,48.8,41,48.9L41,48.9z"/>
</g>
</svg>
