<?xml version="1.0" encoding="utf-8"?>
<!-- Generator: Adobe Illustrator 18.0.0, SVG Export Plug-In . SVG Version: 6.00 Build 0)  -->
<!DOCTYPE svg PUBLIC "-//W3C//DTD SVG 1.1//EN" "http://www.w3.org/Graphics/SVG/1.1/DTD/svg11.dtd">
<svg version="1.1" id="Warstwa_1" xmlns="http://www.w3.org/2000/svg" xmlns:xlink="http://www.w3.org/1999/xlink" x="0px" y="0px"
	 viewBox="0 0 85 85" enable-background="new 0 0 85 85" xml:space="preserve">
<g>
	<path fill="#BFB6A4" d="M44.1,74.7C44.1,74.7,44.1,74.7,44.1,74.7c-0.1,0-0.1,0-0.2,0c-0.1,0-0.3,0-0.4,0l-0.1,0
		c-0.1,0-0.2,0-0.3,0l-0.1,0c-0.1,0-0.3,0-0.4-0.1l-0.1,0c-0.1,0-0.3-0.1-0.4-0.1l-0.1,0c-0.2-0.1-0.4-0.1-0.6-0.2l-0.1,0
		c-0.2-0.1-0.4-0.1-0.5-0.2c-0.1,0-0.1,0-0.2-0.1c-0.2-0.1-0.4-0.2-0.7-0.3h0c-1.4-0.6-3.1-1.8-5.3-3.1c-0.4-0.2-0.8-0.4-1.1-0.7
		c-2.8-1.5-6.2-3-10.4-3.2c-0.6,0-1.3,0-1.9,0c-4.9,0-9,1-11.3,1.6c-0.3,0.1-0.7,0.2-0.9,0.3c-0.6,0.2-0.9,0.3-0.9,0.3s0,0,0-0.1
		c0-0.4-0.1-2.2,0.4-4.3c0-0.2,0.1-0.3,0.1-0.5l0.1-0.2c0-0.1,0.1-0.2,0.1-0.3c0-0.1,0-0.1,0.1-0.2C9,63.1,9,63,9.1,62.9
		c0-0.1,0.1-0.1,0.1-0.2c0.1-0.2,0.1-0.3,0.2-0.5l0-0.1c0.1-0.2,0.2-0.4,0.3-0.6l0.1-0.1c0.1-0.1,0.2-0.3,0.2-0.4l0.1-0.2
		c0.1-0.1,0.2-0.3,0.2-0.4l0.1-0.1c0.6-1.1,1.3-2.2,1.6-2.7v0c0.2-0.3,0.3-0.5,0.3-0.5H5.4c0,0,0.4-1,1.5-2.3c1-1.3,4.5-5.4,4.5-5.4
		l-8.2-2.3L5.9,45c2.8-2.1,10.2-5,10.2-5s0.1-0.9,0.4-2.2v0c0-0.2,0.1-0.3,0.1-0.5c0-0.1,0-0.1,0-0.2c0-0.1,0.1-0.3,0.1-0.4
		c0-0.1,0-0.1,0.1-0.2c0-0.1,0.1-0.3,0.1-0.4c0-0.1,0-0.2,0.1-0.2c0-0.1,0.1-0.3,0.1-0.4c0-0.1,0.1-0.2,0.1-0.3
		c0-0.1,0.1-0.3,0.1-0.4c0-0.1,0-0.2,0.1-0.2c0.1-0.2,0.1-0.3,0.2-0.5c0-0.1,0-0.1,0.1-0.2c0.1-0.2,0.2-0.5,0.2-0.7l0,0l0,0
		c0.1-0.3,0.2-0.7,0.3-1v0c0.2-0.5,0.4-0.9,0.5-1.3l0,0c0.1-0.2,0.2-0.4,0.3-0.6c-3.2-1.5-5.5-4.8-5.5-8.6c0-5.2,4.2-9.4,9.5-9.4
		c3.9,0,7.3,2.4,8.7,5.8c0.1,0,0.2-0.1,0.3-0.1c1.7-0.6,3.3-1.1,4.7-1.4l0,0c0.2-0.1,0.4-0.1,0.6-0.1c0.1,0,0.2-0.1,0.3-0.1
		c0.2,0,0.4-0.1,0.6-0.1c0.1,0,0.2,0,0.3-0.1c0.3-0.1,0.7-0.1,1-0.1c0.1,0,0.1,0,0.2,0c0.2,0,0.3,0,0.5-0.1c0.1,0,0.2,0,0.3,0
		c0.2,0,0.3,0,0.4,0c0.1,0,0.1,0,0.2,0c0.4,0,0.7,0,1,0l0,0c0.3,0,0.6,0,0.8,0c0.5,0,0.9,0,1.1,0c0.2,0,0.6,0,1.1,0
		c0.3,0,0.5,0,0.8,0l0,0c0.3,0,0.6,0,1,0c0.1,0,0.1,0,0.2,0c0.2,0,0.3,0,0.5,0c0.1,0,0.2,0,0.3,0c0.2,0,0.3,0,0.5,0.1
		c0.1,0,0.1,0,0.2,0c0.3,0.1,0.7,0.1,1,0.2c0.1,0,0.2,0,0.3,0.1c0.2,0,0.4,0.1,0.6,0.1c0.1,0,0.2,0,0.3,0.1c0.2,0,0.4,0.1,0.6,0.1
		l0,0c1.5,0.3,3,0.7,4.7,1.4c0.1,0.1,0.2,0.1,0.3,0.1c1.4-3.4,4.8-5.8,8.7-5.8c5.2,0,9.4,4.2,9.4,9.4c0,3.8-2.2,7.1-5.5,8.6
		c0.1,0.2,0.2,0.4,0.3,0.6v0c0.2,0.4,0.4,0.9,0.5,1.3v0c0.1,0.3,0.2,0.6,0.3,1l0,0c0.1,0.2,0.1,0.4,0.2,0.5c0.1,0.2,0.1,0.3,0.1,0.5
		c0.1,0.2,0.1,0.3,0.1,0.5c0,0.1,0.1,0.2,0.1,0.4s0.1,0.3,0.1,0.4c0,0.1,0.1,0.2,0.1,0.4c0,0.1,0.1,0.3,0.1,0.4
		c0,0.1,0.1,0.2,0.1,0.3c0,0.1,0.1,0.3,0.1,0.4c0,0.1,0.1,0.2,0.1,0.3c0,0.2,0.1,0.3,0.1,0.4c0,0.1,0,0.2,0.1,0.2
		c0,0.2,0.1,0.4,0.1,0.6v0c0.2,1,0.3,1.7,0.3,1.7s7.5,2.9,10.3,5l2.8,2.1l-8.2,2.3c0,0,3.5,4.2,4.5,5.4c1,1.3,1.5,2.3,1.5,2.3h-6.9
		c0,0,0.1,0.2,0.3,0.5l0,0c0.1,0.2,0.3,0.4,0.4,0.7l0,0.1c0.1,0.1,0.2,0.3,0.2,0.4l0,0.1c0.2,0.3,0.4,0.7,0.6,1l0,0
		c0.1,0.2,0.2,0.3,0.3,0.5l0.1,0.1c0.1,0.1,0.1,0.3,0.2,0.4l0.1,0.2c0.1,0.1,0.2,0.3,0.2,0.4l0.1,0.1c0.1,0.2,0.2,0.4,0.3,0.6l0,0
		c0.1,0.2,0.2,0.4,0.2,0.5l0.1,0.2c0.1,0.1,0.1,0.3,0.2,0.4l0.1,0.2c0,0.1,0.1,0.3,0.1,0.4l0.1,0.1c0.1,0.2,0.1,0.3,0.1,0.5
		c0.5,2,0.5,3.7,0.4,4.2c0,0.1,0,0.2,0,0.2s-0.3-0.1-0.9-0.3c-0.2-0.1-0.5-0.2-0.9-0.3c-2.2-0.7-6.3-1.6-11.3-1.6
		c-0.6,0-1.3,0-1.9,0c-5.5,0.3-9.6,2.7-12.7,4.6c-1,0.7-2,1.3-2.8,1.7c-0.5,0.3-0.9,0.5-1.3,0.7c-0.3,0.1-0.5,0.2-0.7,0.3
		c-0.1,0-0.1,0.1-0.2,0.1c-0.2,0.1-0.4,0.1-0.6,0.2l-0.1,0c-0.2,0.1-0.4,0.1-0.6,0.2l-0.1,0c-0.2,0-0.3,0.1-0.4,0.1l-0.1,0
		c-0.2,0-0.3,0.1-0.4,0.1l-0.1,0c-0.1,0-0.2,0-0.3,0l0,0C44.4,74.7,44.2,74.7,44.1,74.7L44.1,74.7z"/>
	<path fill="#B95B27" d="M61,15.9c3,0,5.4,2.4,5.4,5.4c0,1.7-0.8,3.1-1.9,4.1c0.4,0.7,0.9,1.4,1.3,2.1l0.1,0.1v0
		c0.1,0.2,0.2,0.5,0.3,0.7c3.2-1.5,5.5-4.8,5.5-8.6c0-5.2-4.2-9.5-9.5-9.5c-3.9,0-7.3,2.4-8.7,5.8c1.3,0.5,2.4,1.1,3.4,1.7
		C57.9,16.7,59.4,15.9,61,15.9L61,15.9z"/>
	<path fill="#FFFFFF" d="M66.4,21.3c0-3-2.4-5.4-5.4-5.4c-1.6,0-3.1,0.8-4.1,1.9c3.5,2.1,5.8,4.8,7.6,7.6
		C65.6,24.4,66.4,22.9,66.4,21.3L66.4,21.3z"/>
	<path fill="#B95B27" d="M16.2,27.7l0.1-0.1l0,0c0.4-0.7,0.8-1.4,1.3-2.1c-1.2-1-1.9-2.5-1.9-4.1c0-3,2.4-5.4,5.4-5.4
		c1.6,0,3.1,0.8,4.1,1.9c1-0.6,2.2-1.2,3.4-1.7c-1.4-3.4-4.8-5.8-8.7-5.8c-5.2,0-9.4,4.2-9.4,9.5c0,3.8,2.2,7.1,5.5,8.6
		C16,28.1,16.1,27.9,16.2,27.7L16.2,27.7z"/>
	<path fill="#FFFFFF" d="M21,15.9c-3,0-5.4,2.4-5.4,5.4c0,1.7,0.7,3.1,1.9,4.1c1.7-2.8,4.1-5.5,7.6-7.6C24.1,16.7,22.7,15.9,21,15.9
		L21,15.9z"/>
	<path fill="#FBB044" d="M75.3,59.8l0.1,0.1L75.3,59.8z"/>
	<path fill="#FBB044" d="M75.6,60.4L75.6,60.4L75.6,60.4z"/>
	<path fill="#FBB044" d="M75,59.2l0.1,0.2L75,59.2z"/>
	<path fill="#FBB044" d="M75.9,61l0.1,0.1L75.9,61z"/>
	<path fill="#FBB044" d="M76.1,61.5l0.1,0.2L76.1,61.5z"/>
	<path fill="#FBB044" d="M73.5,56.6L73.5,56.6L73.5,56.6z"/>
	<path fill="#FBB044" d="M74.4,58.1L74.4,58.1L74.4,58.1z"/>
	<path fill="#FBB044" d="M74.7,58.6l0.1,0.1L74.7,58.6z"/>
	<path fill="#FBB044" d="M73.8,57L73.8,57L73.8,57z"/>
	<path fill="#FBB044" d="M76.3,62l0,0.1L76.3,62z"/>
	<path fill="#FBB044" d="M44.9,14.1c0.2,0,0.3,0,0.5,0.1C45.2,14.2,45.1,14.2,44.9,14.1L44.9,14.1z"/>
	<path fill="#FBB044" d="M62,64.9c-7.3,0.4-12.3,4.5-15.5,6.4C49.7,69.4,54.7,65.3,62,64.9c5.7-0.3,10.6,0.8,13.1,1.6
		C72.6,65.7,67.7,64.6,62,64.9L62,64.9z"/>
	<path fill="#FBB044" d="M45.6,14.2c0.3,0.1,0.7,0.1,1,0.2C46.2,14.3,45.9,14.3,45.6,14.2L45.6,14.2z"/>
	<path fill="#FBB044" d="M44.2,14.1c0.1,0,0.3,0,0.5,0.1C44.4,14.1,44.3,14.1,44.2,14.1L44.2,14.1z"/>
	<path fill="#E87724" d="M79.7,55.4c0,0-0.4-1-1.5-2.3c-1-1.3-4.5-5.5-4.5-5.5l8.2-2.3l-2.8-2.1c-2.8-2.2-10.2-5-10.2-5
		s-0.1-0.7-0.3-1.7c-1.2,0.7-2.8,1.1-3.6,1.5c-1.2,0.6-2.5,1-3.7,1.5c0-1.2,2-3.2,2.7-4.2c0.9-1.2,1.9-2.5,2.8-3.6
		c0.1-0.1,0.2-0.3,0.4-0.5c0.7,2,1.1,3.9,1.3,5.3c-0.3-1.5-0.8-3.9-1.6-6.2c-0.9,0.5-2.2,0.9-3,1.3c-1.1,0.5-2.5,1.3-3.7,1.4
		c0.1-0.9,4-4.7,5.4-5.5l0,0c-0.4-0.7-0.8-1.4-1.3-2.1c-1.7-2.8-4.1-5.5-7.6-7.6c-1-0.6-2.2-1.2-3.4-1.7c-0.1,0-0.2-0.1-0.3-0.1
		c-1.9-0.7-3.7-1.2-5.3-1.5c0.2,0,0.4,0.1,0.6,0.1c-0.2,2.4-0.9,4.7-1.5,7c-0.5,1.9-0.9,3.9-1.8,5.7c-0.8-3.2-1.2-6.5-1.7-9.8
		c-0.2-1.1-0.3-2.4-0.4-3.6c0.3,0,0.6,0,1,0.1c-1.4-0.1-2.5-0.1-3,0c-0.5,0-1.5-0.1-3,0c0.3,0,0.7-0.1,1-0.1
		c-0.2,1.2-0.3,2.4-0.5,3.6c-0.4,3.3-0.9,6.6-1.7,9.8c-0.9-1.7-1.3-3.8-1.8-5.7c-0.6-2.3-1.3-4.6-1.5-7c0.2-0.1,0.4-0.1,0.6-0.1
		c-1.6,0.3-3.4,0.8-5.3,1.5c-0.1,0-0.2,0.1-0.3,0.1c-1.3,0.5-2.4,1.1-3.4,1.7c-3.5,2.1-5.8,4.8-7.6,7.6c-0.4,0.7-0.9,1.4-1.3,2.1
		c1.4,0.8,5.3,4.6,5.4,5.5c-1.2-0.1-2.6-0.9-3.7-1.4c-0.8-0.4-2.1-0.8-3-1.3c-0.1,0.3-0.2,0.7-0.3,1c0.2,0.2,0.3,0.4,0.4,0.5
		c0.9,1.2,2,2.4,2.8,3.6c0.7,1,2.7,3,2.7,4.2c-1.2-0.5-2.5-1-3.7-1.5c-0.8-0.4-2.4-0.9-3.6-1.5c0.2-1.3,0.6-3.3,1.3-5.2
		c-1.1,3.5-1.5,6.9-1.5,6.9s-7.5,2.9-10.3,5l-2.8,2.1l8.2,2.3c0,0-3.5,4.2-4.5,5.5c-1,1.3-1.5,2.3-1.5,2.3h6.9c0,0-0.1,0.2-0.3,0.5
		c6.8-7.6,21.2-8.7,32.1-8.3c10.9-0.5,25.3,0.7,32.1,8.3c-0.2-0.3-0.3-0.5-0.3-0.5H79.7z"/>
	<path fill="#FBB044" d="M66.4,29c0.2,0.4,0.4,0.9,0.5,1.4C66.8,29.9,66.6,29.4,66.4,29L66.4,29z"/>
	<path fill="#FBB044" d="M45.1,71.9c-0.3,0.1-0.5,0.2-0.7,0.3C44.6,72.1,44.9,72,45.1,71.9L45.1,71.9z"/>
	<path fill="#FBB044" d="M47,14.4c0.2,0,0.4,0.1,0.6,0.1C47.3,14.5,47.1,14.4,47,14.4L47,14.4z"/>
	<path fill="#FBB044" d="M44.2,72.2c-0.2,0.1-0.4,0.2-0.6,0.2C43.8,72.4,44,72.3,44.2,72.2L44.2,72.2z"/>
	<path fill="#FBB044" d="M43.5,72.4c-0.2,0.1-0.4,0.1-0.6,0.2C43.1,72.6,43.3,72.5,43.5,72.4L43.5,72.4z"/>
	<path fill="#FBB044" d="M76,66.7c-0.2-0.1-0.5-0.2-0.9-0.3C75.4,66.5,75.8,66.6,76,66.7L76,66.7z"/>
	<path fill="#FBB044" d="M42.4,72.8c-0.2,0-0.3,0.1-0.4,0.1C42.1,72.8,42.2,72.8,42.4,72.8L42.4,72.8z"/>
	<path fill="#FBB044" d="M42.9,72.7c-0.2,0-0.3,0.1-0.4,0.1C42.6,72.7,42.7,72.7,42.9,72.7L42.9,72.7z"/>
	<path fill="#FBB044" d="M41.9,72.9c-0.1,0-0.2,0-0.3,0C41.6,72.9,41.8,72.9,41.9,72.9L41.9,72.9z"/>
	<path fill="#FBB044" d="M66.4,28.9c-0.1-0.2-0.2-0.4-0.3-0.6c-0.1-0.2-0.2-0.5-0.3-0.7C66,28.1,66.2,28.5,66.4,28.9L66.4,28.9z"/>
	<path fill="#FBB044" d="M7.3,58.7l0.1-0.1L7.3,58.7z"/>
	<path fill="#FBB044" d="M15.1,30.3c0.2-0.5,0.3-0.9,0.5-1.4C15.4,29.4,15.2,29.9,15.1,30.3L15.1,30.3z"/>
	<path fill="#FBB044" d="M6.3,60.5L6.3,60.5L6.3,60.5z"/>
	<path fill="#FBB044" d="M6.9,59.3L7,59.2L6.9,59.3z"/>
	<path fill="#FBB044" d="M6.6,59.9l0.1-0.1L6.6,59.9z"/>
	<path fill="#FBB044" d="M34.5,14.5c0.2,0,0.4-0.1,0.6-0.1C34.9,14.4,34.7,14.5,34.5,14.5L34.5,14.5z"/>
	<path fill="#FBB044" d="M6.1,61.1c0-0.1,0.1-0.1,0.1-0.2C6.1,61,6.1,61.1,6.1,61.1L6.1,61.1z"/>
	<path fill="#FBB044" d="M36.6,14.2c0.2,0,0.3,0,0.5-0.1C36.9,14.2,36.8,14.2,36.6,14.2L36.6,14.2z"/>
	<path fill="#FBB044" d="M35.4,14.4c0.3-0.1,0.7-0.1,1-0.1C36.1,14.3,35.7,14.3,35.4,14.4L35.4,14.4z"/>
	<path fill="#FBB044" d="M37.4,14.1c0.2,0,0.3,0,0.5-0.1C37.7,14.1,37.5,14.1,37.4,14.1L37.4,14.1z"/>
	<path fill="#FBB044" d="M6.9,66.4c2.5-0.7,7.4-1.9,13.2-1.6c4.8,0.2,8.6,2.1,11.5,3.9c-3-1.8-6.7-3.6-11.5-3.9
		C14.3,64.6,9.4,65.7,6.9,66.4L6.9,66.4z"/>
	<path fill="#FBB044" d="M37.6,72.2c-0.2-0.1-0.5-0.2-0.7-0.3C37.2,72,37.4,72.1,37.6,72.2L37.6,72.2z"/>
	<path fill="#FBB044" d="M5.7,62.2L5.7,62L5.7,62.2z"/>
	<path fill="#FBB044" d="M6.9,66.4c-0.3,0.1-0.6,0.2-0.9,0.3C6.3,66.6,6.5,66.5,6.9,66.4L6.9,66.4z"/>
	<path fill="#FBB044" d="M39.6,72.8c-0.1,0-0.3-0.1-0.4-0.1C39.3,72.7,39.5,72.7,39.6,72.8L39.6,72.8z"/>
	<path fill="#FBB044" d="M38.4,72.4c-0.2-0.1-0.4-0.1-0.5-0.2C38,72.3,38.2,72.4,38.4,72.4L38.4,72.4z"/>
	<path fill="#FBB044" d="M39,72.6c-0.2-0.1-0.4-0.1-0.5-0.2C38.7,72.5,38.9,72.6,39,72.6L39,72.6z"/>
	<path fill="#FBB044" d="M5.8,61.7c0-0.1,0.1-0.1,0.1-0.2C5.9,61.5,5.9,61.6,5.8,61.7L5.8,61.7z"/>
	<path fill="#FBB044" d="M40.1,72.9c-0.1,0-0.3-0.1-0.4-0.1C39.8,72.8,40,72.8,40.1,72.9L40.1,72.9z"/>
	<path fill="#FBB044" d="M40.4,72.9c-0.1,0-0.2,0-0.3,0C40.2,72.9,40.3,72.9,40.4,72.9L40.4,72.9z"/>
	<path fill="#FBB044" d="M16.2,27.7c-0.1,0.2-0.2,0.5-0.4,0.7c-0.1,0.2-0.2,0.4-0.3,0.6C15.8,28.5,16,28.1,16.2,27.7L16.2,27.7z"/>
	<path fill="#FBB044" d="M41,72.9c-0.1,0-0.3,0-0.5,0C40.7,72.9,40.9,72.9,41,72.9c0.1,0,0.3,0,0.5,0C41.3,72.9,41.1,72.9,41,72.9
		L41,72.9z"/>
	<path fill="#FFFFFF" d="M41,64.7c-3.2,4.7-8.6,2.4-12-1.3c0.2-0.2,4.6,3.5,7.8,3.1c1.5-0.2,2.8-1.2,3.8-2.9v-7.2
		c-0.9-0.5-2-1.1-3.3-2c-4.3-3-4.3-5.8,3.8-5.8c8.1-0.1,8.1,2.8,3.8,5.8c-1.3,0.9-2.4,1.5-3.3,2v7.2c1,1.7,2.3,2.7,3.8,2.9
		c3.2,0.4,7.6-3.3,7.8-3.1C49.6,67.1,44.2,69.4,41,64.7L41,64.7z M41,47.6c-10.9-0.5-25.3,0.7-32.1,8.3l0,0c-0.4,0.6-1,1.6-1.6,2.7
		l-0.1,0.1C7.2,58.9,7.1,59,7,59.2l-0.1,0.2c-0.1,0.2-0.2,0.3-0.2,0.4l-0.1,0.1c-0.1,0.2-0.2,0.4-0.3,0.6l0,0.1
		c-0.1,0.2-0.1,0.3-0.2,0.5c0,0.1-0.1,0.1-0.1,0.2C6,61.2,6,61.4,5.9,61.5c0,0.1,0,0.1-0.1,0.2c0,0.1-0.1,0.2-0.1,0.3l-0.1,0.2
		c0,0.2-0.1,0.3-0.1,0.4c-0.5,2.1-0.5,3.9-0.4,4.3c0,0.1,0,0.1,0,0.1s0.3-0.1,0.9-0.3c0.2-0.1,0.5-0.2,0.9-0.3
		c2.5-0.7,7.4-1.9,13.2-1.6c4.8,0.2,8.6,2.1,11.5,3.9c2.2,1.3,3.9,2.6,5.3,3.1l0,0c0.2,0.1,0.5,0.2,0.7,0.3c0.1,0,0.1,0.1,0.2,0.1
		c0.2,0.1,0.4,0.1,0.5,0.2l0.1,0c0.2,0.1,0.4,0.1,0.5,0.2l0.2,0c0.1,0,0.3,0.1,0.4,0.1l0.1,0c0.2,0,0.3,0.1,0.4,0.1h0.1
		c0.1,0,0.2,0,0.3,0l0,0c0.2,0,0.4,0,0.5,0c0.1,0,0.3,0,0.5,0l0.1,0c0.1,0,0.2,0,0.3,0h0.1c0.1,0,0.3-0.1,0.4-0.1l0.1,0
		c0.1,0,0.3-0.1,0.4-0.1l0.1,0c0.2-0.1,0.4-0.1,0.6-0.2l0.1,0c0.2-0.1,0.4-0.1,0.6-0.2c0.1,0,0.1,0,0.2-0.1c0.2-0.1,0.5-0.2,0.7-0.3
		c0.4-0.2,0.8-0.4,1.3-0.7c3.3-1.9,8.2-6,15.5-6.4c5.7-0.3,10.6,0.8,13.1,1.6c0.3,0.1,0.7,0.2,0.9,0.3c0.6,0.2,0.9,0.3,0.9,0.3
		s0-0.1,0-0.2c0-0.6,0-2.3-0.4-4.2c0-0.2-0.1-0.3-0.1-0.5l0-0.1c-0.1-0.1-0.1-0.2-0.1-0.4l-0.1-0.2c-0.1-0.1-0.1-0.3-0.2-0.4
		L75.9,61c-0.1-0.2-0.2-0.3-0.2-0.5l0,0c-0.1-0.2-0.2-0.4-0.3-0.6l-0.1-0.1c-0.1-0.2-0.1-0.3-0.2-0.5L75,59.2
		c-0.1-0.2-0.1-0.3-0.2-0.4l-0.1-0.1c-0.1-0.2-0.2-0.3-0.3-0.5l0,0c-0.2-0.4-0.4-0.7-0.6-1l0-0.1c-0.1-0.1-0.2-0.3-0.2-0.4l0-0.1
		c-0.2-0.3-0.3-0.5-0.4-0.7l0,0C66.3,48.3,51.9,47.2,41,47.6L41,47.6z"/>
	<path fill="#0D0D0D" d="M66.9,31.8c-1,1.2-2,2.4-2.8,3.6c-0.7,1-2.7,3-2.7,4.2c1.2-0.5,2.5-1,3.7-1.5c0.8-0.4,2.4-0.9,3.6-1.5v0
		c-0.2-1.3-0.7-3.3-1.3-5.3C67.1,31.5,67,31.6,66.9,31.8L66.9,31.8z"/>
	<path fill="#0D0D0D" d="M65.8,27.7L65.8,27.7l-0.1-0.1l0,0c-1.4,0.8-5.3,4.6-5.4,5.5c1.2-0.1,2.6-0.9,3.7-1.4
		c0.8-0.4,2.1-0.8,3-1.3l0,0c-0.2-0.5-0.4-0.9-0.5-1.4l0,0C66.2,28.5,66,28.1,65.8,27.7L65.8,27.7z"/>
	<path fill="#0D0D0D" d="M43.4,17.6c0.5,3.3,0.9,6.6,1.7,9.8c0.9-1.7,1.3-3.8,1.8-5.7c0.6-2.3,1.3-4.6,1.5-7
		c-0.2-0.1-0.4-0.1-0.6-0.1c-0.1,0-0.2-0.1-0.3-0.1c-0.2,0-0.4-0.1-0.6-0.1c-0.1,0-0.2,0-0.3-0.1c-0.4-0.1-0.7-0.1-1-0.2
		c-0.1,0-0.1,0-0.2,0c-0.2,0-0.3,0-0.5-0.1c-0.1,0-0.2,0-0.3,0c-0.2,0-0.3,0-0.5-0.1c-0.1,0-0.1,0-0.2,0c-0.4,0-0.7-0.1-1-0.1
		C43.2,15.2,43.3,16.5,43.4,17.6L43.4,17.6z"/>
	<path fill="#0D0D0D" d="M17,38.1c1.2,0.6,2.5,1,3.7,1.5c0-1.2-2-3.2-2.7-4.2c-0.9-1.2-1.9-2.5-2.8-3.6c-0.1-0.1-0.2-0.3-0.4-0.5
		l0,0v0c-0.7,2-1.1,3.9-1.3,5.2C14.6,37.2,16.2,37.7,17,38.1L17,38.1z"/>
	<path fill="#0D0D0D" d="M21.7,33c-0.1-0.9-4-4.7-5.4-5.5l0,0l-0.1,0.1v0c-0.2,0.4-0.4,0.8-0.6,1.3v0c-0.2,0.4-0.4,0.9-0.5,1.4l0,0
		c0.9,0.5,2.2,0.9,3,1.3C19.1,32.2,20.6,33,21.7,33L21.7,33z"/>
	<path fill="#0D0D0D" d="M35.1,21.7c0.5,1.9,0.9,3.9,1.8,5.7c0.8-3.2,1.2-6.5,1.7-9.8c0.2-1.1,0.3-2.4,0.5-3.6c-0.3,0-0.6,0-1,0.1
		c-0.1,0-0.1,0-0.2,0c-0.2,0-0.3,0-0.5,0.1c-0.1,0-0.2,0-0.3,0c-0.2,0-0.3,0-0.5,0.1c-0.1,0-0.1,0-0.2,0c-0.3,0-0.7,0.1-1,0.1
		c-0.1,0-0.2,0-0.3,0.1c-0.2,0-0.4,0.1-0.6,0.1c-0.1,0-0.2,0-0.3,0.1c-0.2,0-0.4,0.1-0.6,0.1C33.8,17.1,34.4,19.4,35.1,21.7
		L35.1,21.7z"/>
	<path fill="#0D0D0D" d="M45.3,66.5c-1.5-0.2-2.8-1.2-3.8-2.9v-7.2c-0.2,0.1-0.3,0.2-0.5,0.2c-0.1-0.1-0.3-0.2-0.5-0.2v7.2
		c-1,1.7-2.3,2.7-3.8,2.9c-3.2,0.4-7.6-3.3-7.8-3.1c3.4,3.7,8.8,6,12,1.3c3.2,4.7,8.6,2.4,12-1.3C52.9,63.2,48.5,66.9,45.3,66.5
		L45.3,66.5z"/>
	<path fill="#DD5C71" d="M41,56.7c0.2-0.1,0.3-0.2,0.5-0.2c0.9-0.5,2-1.1,3.3-2c4.3-3,4.3-5.8-3.8-5.8c-8.1-0.1-8.1,2.8-3.8,5.8
		c1.3,0.9,2.4,1.5,3.3,2C40.7,56.5,40.9,56.6,41,56.7L41,56.7z"/>
	<path fill="#FFFFFF" d="M26.2,38.8c0.2-1.2,1.4-1.9,2.6-1.7c1.2,0.2,2,1.4,1.7,2.5c0,0.2-0.1,0.3-0.1,0.4c-0.3-0.4-0.7-0.7-1.4-0.8
		c-1.1-0.2-2.1,0.3-2.6,1C26.1,39.8,26.1,39.3,26.2,38.8L26.2,38.8z M27.6,42.6c1.9,0.4,3.7-0.8,4.1-2.7c0.4-1.9-0.9-3.7-2.8-4
		c-1.9-0.4-3.8,0.8-4.1,2.7S25.7,42.2,27.6,42.6L27.6,42.6z"/>
	<path fill="#0D0D0D" d="M29,39.3c0.6,0.1,1.1,0.4,1.4,0.8c0.1-0.1,0.1-0.3,0.1-0.4c0.2-1.2-0.5-2.3-1.7-2.5
		c-1.2-0.2-2.4,0.5-2.6,1.7c-0.1,0.5,0,1,0.2,1.5C27,39.6,27.9,39.1,29,39.3L29,39.3z"/>
	<path fill="#FFFFFF" d="M53.9,40.3c-0.6-0.7-1.5-1.2-2.6-1c-0.6,0.1-1.1,0.4-1.3,0.8c-0.1-0.1-0.1-0.3-0.1-0.4
		c-0.2-1.2,0.5-2.3,1.7-2.5c1.2-0.2,2.4,0.5,2.6,1.7C54.2,39.3,54.1,39.8,53.9,40.3L53.9,40.3z M55.4,38.6c-0.4-1.9-2.2-3.1-4.1-2.7
		c-1.9,0.4-3.1,2.2-2.8,4c0.4,1.9,2.2,3.1,4.1,2.7C54.5,42.2,55.8,40.4,55.4,38.6L55.4,38.6z"/>
	<path fill="#0D0D0D" d="M51.2,39.3c-0.6,0.1-1.1,0.4-1.3,0.8c-0.1-0.1-0.1-0.3-0.1-0.4c-0.2-1.2,0.5-2.3,1.7-2.5
		c1.2-0.2,2.4,0.5,2.6,1.7c0.1,0.5,0,1-0.2,1.5C53.3,39.6,52.4,39.1,51.2,39.3L51.2,39.3z"/>
</g>
</svg>
