<?xml version="1.0" encoding="utf-8"?>
<!-- Generator: Adobe Illustrator 18.0.0, SVG Export Plug-In . SVG Version: 6.00 Build 0)  -->
<!DOCTYPE svg PUBLIC "-//W3C//DTD SVG 1.1//EN" "http://www.w3.org/Graphics/SVG/1.1/DTD/svg11.dtd">
<svg version="1.1" id="Warstwa_1" xmlns="http://www.w3.org/2000/svg" xmlns:xlink="http://www.w3.org/1999/xlink" x="0px" y="0px"
	 viewBox="0 0 85 85" enable-background="new 0 0 85 85" xml:space="preserve">
<g>
	<path fill="#BFB6A4" d="M44.5,84.8c-14.7,0-18.9-7.4-19.7-11.8c-2.4-1.9-4.4-4.1-6.1-6.6c-1.8-2.2-3.2-4.7-4.3-7.4h0
		c-0.2-0.6-0.5-1.2-0.7-1.8c0-0.1,0-0.1-0.1-0.2c-0.2-0.6-0.4-1.2-0.6-1.8v0c-0.3-1.1-0.6-2.3-0.8-3.5v0c-0.1-0.6-0.2-1.3-0.2-1.9
		l0-0.2c0-0.6-0.1-1.3-0.1-1.9c0-0.2,0-0.4,0-0.7c0-1,0.1-2,0.2-2.9v0v-0.1c0.1-0.5,0.1-1,0.2-1.6c0.1-0.5,0.2-1.1,0.3-1.6l0,0
		c1-4.8,3.1-9.2,6-13l0,0c0.4-0.5,0.8-0.9,1.1-1.4l0.1-0.1c0.4-0.4,0.8-0.9,1.2-1.3l0,0c1.1-1.2,2.4-2.2,3.7-3.2
		c-0.4-0.3-0.8-0.7-1.3-1.1c-1.6-1.4-11.8-10.7-4.6-16.6C20.5,3,22,2.5,23.4,2.5c5.2,0,9.2,7.1,10.6,11.7c0.3,1,0.6,1.9,0.9,2.7
		c0.9-0.3,1.8-0.5,2.7-0.7L36.1,5.6c0,0,2.8-3.3,8.1-3.3c5.3,0,8.1,3.3,8.1,3.3l-1.6,10.6c0.9,0.2,1.8,0.4,2.7,0.7
		c0.3-0.8,0.6-1.7,0.9-2.7c1.5-4.6,5.5-11.7,10.6-11.7c1.4,0,2.9,0.5,4.5,1.8c7.2,5.9-3,15.1-4.6,16.6c-0.4,0.4-0.8,0.7-1.2,1.1
		c1.3,1,2.5,2,3.7,3.2h0c0.4,0.4,0.8,0.8,1.2,1.3l0.1,0.1c0.4,0.4,0.8,0.9,1.1,1.4c3,3.7,5.1,8.2,6.1,13v0c0.1,0.6,0.2,1.1,0.3,1.7
		c0.1,0.5,0.1,1,0.2,1.5l0,0.1l0,0c0.1,0.9,0.2,1.9,0.2,2.9c0,0.2,0,0.4,0,0.7c0,0.6,0,1.3-0.1,1.9l0,0.2c0,0.6-0.1,1.3-0.2,1.9v0
		c-0.2,1.2-0.4,2.4-0.7,3.5l0,0l0,0c-0.2,0.6-0.3,1.2-0.6,1.8c0,0.1,0,0.1-0.1,0.2c-0.2,0.6-0.4,1.2-0.7,1.8c-0.8,2-1.8,3.9-3,5.6
		c-1.8,3.1-4.1,5.8-6.9,8.1C63.5,77.2,59.4,84.8,44.5,84.8L44.5,84.8z"/>
	<path fill="#FFFFFF" d="M8.6,42.1c0-0.5,0.1-1.1,0.2-1.6C8.7,41,8.7,41.5,8.6,42.1L8.6,42.1z"/>
	<path fill="#FFFFFF" d="M72.7,40.5c0.1,0.5,0.1,1,0.2,1.5C72.9,41.5,72.8,41,72.7,40.5L72.7,40.5z"/>
	<path fill="#FFFFFF" d="M50.6,51.9c-2.8,0.1-5.2-2-5.3-4.8c-0.1-2.8,2.1-5.1,4.9-5.2c2.8-0.1,5.2,2.1,5.3,4.8
		C55.7,49.4,53.5,51.8,50.6,51.9L50.6,51.9z M30.9,51.9c-2.8-0.1-5-2.4-4.9-5.2c0.1-2.8,2.5-4.9,5.3-4.8c2.8,0.1,5,2.4,4.9,5.2
		S33.7,51.9,30.9,51.9L30.9,51.9z M20,7.9c2.9-1.4,6.6,10.4,6.6,10.4C20.6,15.7,17.1,9.3,20,7.9L20,7.9z M61.5,7.9
		c2.9,1.4-0.5,7.7-6.6,10.4C54.9,18.4,58.5,6.6,61.5,7.9L61.5,7.9z M72.9,42.2l-12.9,2.4c0,0,9.7-4.6,12.4-5.8c-1-4.8-3.1-9.2-6-13
		l-12.4,9L64,23.1c-1.1-1.2-2.4-2.2-3.7-3.2c0.4-0.3,0.8-0.7,1.2-1.1c1.6-1.4,11.8-10.7,4.6-16.6c-7.2-5.9-13.2,4-15.1,9.9
		c-0.3,1-0.7,1.9-1,2.7c-0.9-0.3-1.8-0.5-2.7-0.7l0,0.2c-3.7,0.5-6.5,13.4-6.5,13.4s-2.8-12.9-6.5-13.4l0-0.2
		c-0.9,0.2-1.8,0.4-2.7,0.7c-0.3-0.8-0.6-1.7-1-2.7c-1.9-5.9-7.9-15.8-15.1-9.9c-7.2,5.9,3,15.1,4.6,16.6c0.4,0.4,0.8,0.7,1.2,1.1
		c-1.3,1-2.5,2-3.7,3.2l9.9,11.7l-12.3-9c-3,3.8-5.1,8.2-6.1,13c2.6,1.2,12.4,5.8,12.4,5.8L8.6,42.2c-0.1,0.9-0.1,1.9-0.1,2.9
		c0,0.2,0,0.4,0,0.7l11.4,2l-11,2c0.2,1.2,0.4,2.4,0.7,3.5C12.5,52.9,19,52,19,52l-8.1,5c1.1,2.6,2.6,5.1,4.3,7.4
		c1.7,2.5,3.7,4.7,6,6.6c-0.1-0.7-0.2-1.3-0.2-1.8c0-9.8,12-14.2,20-14.2c7.9,0,19.9,4.3,19.9,14.2c0,0.4,0,1-0.1,1.6
		c2.7-2.3,5.1-5,6.9-8.1c1.2-1.8,2.2-3.6,3-5.6l-8.1-5c0,0,6.5,0.9,9.4,1.2c0.3-1.1,0.6-2.3,0.8-3.5l-11-2l11.4-2c0-0.2,0-0.4,0-0.7
		C73.1,44.1,73,43.1,72.9,42.2L72.9,42.2z"/>
	<path fill="#3E3A39" d="M50.9,40.8c-3.4,0.1-6.1,2.9-6,6.3c0.1,3.3,3,5.9,6.4,5.8c3.4-0.1,6.1-2.9,6-6.3
		C57.2,43.3,54.3,40.7,50.9,40.8L50.9,40.8z"/>
	<path fill="#3E3A39" d="M30.7,40.8c-3.4-0.1-6.3,2.5-6.4,5.8c-0.1,3.3,2.6,6.2,6,6.3c3.4,0.1,6.3-2.5,6.4-5.8
		C36.8,43.7,34.1,40.9,30.7,40.8L30.7,40.8z"/>
	<path fill="#3E3A39" d="M35.1,76c0,0-5.9-2.1-5.4-5.2C30.2,67.7,36.1,69.5,35.1,76L35.1,76z M51.8,70.8c0.5,3.1-5.4,5.2-5.4,5.2
		C45.4,69.5,51.3,67.7,51.8,70.8L51.8,70.8z M41,55c-7.9,0-20,4.3-20,14.2c0,0.5,0.1,1.1,0.2,1.8c0.9,4.4,5.1,11.8,19.8,11.8
		c14.9,0,19-7.6,19.8-12c0.1-0.6,0.1-1.2,0.1-1.6C60.9,59.3,48.9,55,41,55L41,55z"/>
	<path fill="#FFFFFF" d="M51.8,70.8c-0.5-3.1-6.4-1.3-5.4,5.2C46.5,76,52.4,73.8,51.8,70.8L51.8,70.8z"/>
	<path fill="#FFFFFF" d="M35.1,76c1-6.5-4.9-8.2-5.4-5.2C29.2,73.8,35.1,76,35.1,76L35.1,76z"/>
	<path fill="#3E3A39" d="M26.6,18.4c0,0-3.6-11.8-6.6-10.4C17.1,9.3,20.6,15.7,26.6,18.4L26.6,18.4z"/>
	<path fill="#3E3A39" d="M61.5,7.9c-3-1.4-6.6,10.4-6.6,10.4C61,15.7,64.5,9.3,61.5,7.9L61.5,7.9z"/>
	<path fill="#3E3A39" d="M40.8,27.8c0,0,2.9-12.9,6.5-13.4l0-0.2l1.6-10.6c0,0-2.8-3.4-8.1-3.4c-5.3,0-8.1,3.4-8.1,3.4l1.6,10.6
		l0,0.2C37.9,14.9,40.8,27.8,40.8,27.8L40.8,27.8z"/>
	<path fill="#3E3A39" d="M19,52c0,0-6.5,0.9-9.4,1.2v0c0.2,0.6,0.4,1.2,0.6,1.8c0,0.1,0,0.1,0.1,0.2c0.2,0.6,0.4,1.2,0.7,1.8l0,0
		L19,52z"/>
	<path fill="#3E3A39" d="M19.8,47.7l-11.4-2c0,0.6,0,1.3,0.1,1.9l0,0.2c0,0.6,0.1,1.3,0.2,1.9v0L19.8,47.7z"/>
	<path fill="#3E3A39" d="M21.5,44.6c0,0-9.7-4.6-12.4-5.8v0C9,39.4,8.9,40,8.8,40.5c-0.1,0.5-0.1,1-0.2,1.6l0,0.1l0,0L21.5,44.6z"/>
	<path fill="#3E3A39" d="M27.5,34.8l-9.9-11.7l0,0c-0.4,0.4-0.8,0.8-1.2,1.3l-0.1,0.1c-0.4,0.4-0.8,0.9-1.1,1.4l0,0L27.5,34.8z"/>
	<path fill="#3E3A39" d="M62.6,52l8.1,5c0.2-0.6,0.5-1.2,0.7-1.8c0-0.1,0-0.1,0.1-0.2c0.2-0.6,0.4-1.2,0.6-1.8v0l0,0
		C69.1,52.9,62.6,52,62.6,52L62.6,52z"/>
	<path fill="#3E3A39" d="M61.7,47.7l11,2v0c0.1-0.6,0.2-1.3,0.2-1.9l0-0.2c0-0.6,0.1-1.3,0.1-1.9L61.7,47.7z"/>
	<path fill="#3E3A39" d="M60.1,44.6l12.9-2.4l0,0v-0.1c-0.1-0.5-0.1-1-0.2-1.5c-0.1-0.6-0.2-1.1-0.3-1.7l0,0
		C69.8,40,60.1,44.6,60.1,44.6L60.1,44.6z"/>
	<path fill="#3E3A39" d="M54,34.8l12.4-9c-0.4-0.5-0.8-0.9-1.1-1.4l-0.1-0.1c-0.4-0.4-0.8-0.9-1.2-1.3l0,0L54,34.8z"/>
	<path fill="#FFFFFF" d="M28.2,46.2c0.3-1.3,1.5-2.1,2.8-1.8c1.3,0.3,2.1,1.5,1.9,2.7c0,0.2-0.1,0.3-0.1,0.5
		c-0.3-0.4-0.8-0.7-1.5-0.8c-1.2-0.2-2.2,0.3-2.8,1C28.2,47.4,28.1,46.8,28.2,46.2L28.2,46.2z M29.8,50.3c2.1,0.4,4-0.9,4.4-2.9
		c0.4-2-0.9-3.9-3-4.3c-2.1-0.4-4,0.9-4.4,2.9C26.4,48,27.8,49.9,29.8,50.3L29.8,50.3z"/>
	<path fill="#0D0D0D" d="M31.3,46.8c0.7,0.1,1.1,0.4,1.5,0.8c0.1-0.2,0.1-0.3,0.1-0.5c0.3-1.3-0.6-2.5-1.9-2.7
		c-1.3-0.3-2.5,0.6-2.8,1.8c-0.1,0.6,0,1.1,0.3,1.6C29.1,47,30.1,46.5,31.3,46.8L31.3,46.8z"/>
	<path fill="#FFFFFF" d="M53,47.8c-0.6-0.8-1.6-1.3-2.8-1c-0.7,0.1-1.1,0.4-1.4,0.8c-0.1-0.2-0.1-0.3-0.1-0.5
		c-0.3-1.3,0.6-2.5,1.9-2.7c1.3-0.3,2.5,0.6,2.8,1.8C53.3,46.8,53.2,47.4,53,47.8L53,47.8z M54.6,46c-0.4-2-2.4-3.3-4.4-2.9
		c-2.1,0.4-3.4,2.3-3,4.3c0.4,2,2.4,3.3,4.4,2.9C53.6,49.9,55,48,54.6,46L54.6,46z"/>
	<path fill="#0D0D0D" d="M50.1,46.8c-0.7,0.1-1.1,0.4-1.4,0.8c-0.1-0.2-0.1-0.3-0.1-0.5c-0.3-1.3,0.6-2.5,1.9-2.7
		c1.3-0.3,2.5,0.6,2.8,1.8c0.1,0.6,0,1.1-0.3,1.6C52.3,47,51.3,46.5,50.1,46.8L50.1,46.8z"/>
</g>
</svg>
